<svg width="558" height="704" viewBox="0 0 558 704" xmlns="http://www.w3.org/2000/svg">
    <defs>
        <linearGradient x1="24.697%" y1=".339%" x2="50%" y2="99.661%" id="4fxqv88uxa">
            <stop stop-color="#3A5775" offset="0%"/>
            <stop stop-color="#17222C" offset="100%"/>
        </linearGradient>
        <linearGradient x1="64.591%" y1="1.617%" x2="50%" y2="100%" id="mepkq5d69b">
            <stop stop-color="#246C4C" offset="0%"/>
            <stop stop-color="#061710" offset="100%"/>
        </linearGradient>
        <linearGradient x1="50%" y1="0%" x2="50%" y2="100%" id="kvfe7667tc">
            <stop stop-color="#41B883" offset="0%"/>
            <stop stop-color="#0A291B" offset="100%"/>
        </linearGradient>
        <linearGradient x1="50%" y1="0%" x2="50%" y2="100%" id="eos47mhlcd">
            <stop stop-color="#667DFF" offset="0%"/>
            <stop stop-color="#364FDE" offset="100%"/>
        </linearGradient>
        <linearGradient x1="50%" y1="0%" x2="50%" y2="100%" id="kf2dyalare">
            <stop stop-color="#B8B8B8" offset="0%"/>
            <stop stop-color="#3C3F56" offset="100%"/>
        </linearGradient>
        <linearGradient x1="2.48%" y1="48.19%" x2="80.909%" y2="54.049%" id="i76fzjz0cf">
            <stop stop-color="#CD7651" offset="0%"/>
            <stop stop-color="#E5926F" offset="100%"/>
        </linearGradient>
        <linearGradient x1="50%" y1="95.131%" x2="50%" y2="6.918%" id="m9f7df6hfg">
            <stop stop-color="#667DFF" offset="0%"/>
            <stop stop-color="#364FDE" offset="100%"/>
        </linearGradient>
        <linearGradient x1="92.505%" y1="28.077%" x2="16.168%" y2="75.526%" id="9r58y7sslh">
            <stop stop-color="#38394D" offset="0%"/>
            <stop stop-color="#35384C" offset="100%"/>
        </linearGradient>
        <linearGradient x1="92.913%" y1="33.866%" x2="15.272%" y2="67.895%" id="hjdbf7bubi">
            <stop stop-color="#B9B9B9" offset="0%"/>
            <stop stop-color="#6E6D6D" offset="100%"/>
        </linearGradient>
        <linearGradient x1="50%" y1="0%" x2="55.094%" y2="92.833%" id="ilyp1x34lj">
            <stop stop-color="#364FDE" offset="0%"/>
            <stop stop-color="#667DFF" offset="100%"/>
        </linearGradient>
        <linearGradient x1="17.381%" y1="31.058%" x2="90.276%" y2="66.925%" id="fjel7s82ck">
            <stop stop-color="#42445F" offset="0%"/>
            <stop stop-color="#36394C" offset="100%"/>
        </linearGradient>
        <linearGradient x1="50%" y1="0%" x2="50%" y2="76.845%" id="stplok5tol">
            <stop stop-color="#B6C5FF" offset="0%"/>
            <stop stop-color="#8092FF" stop-opacity="0" offset="100%"/>
        </linearGradient>
        <linearGradient x1="-47.606%" y1="68.683%" x2="112.052%" y2="38.129%" id="mju7ag7j6m">
            <stop stop-color="#66F" offset="0%"/>
            <stop stop-color="#6663FA" offset="17%"/>
            <stop stop-color="#645BEB" offset="38%"/>
            <stop stop-color="#634ED2" offset="60%"/>
            <stop stop-color="#603CB0" offset="84%"/>
            <stop stop-color="#603CB0" offset="100%"/>
        </linearGradient>
        <linearGradient x1="-4.084%" y1="76.905%" x2="104.17%" y2="23.046%" id="gtmqw1yo2n">
            <stop stop-color="#5FC07E" offset="2%"/>
            <stop stop-color="#5CBC79" offset="17%"/>
            <stop stop-color="#49A55D" offset="100%"/>
        </linearGradient>
        <linearGradient x1="95.894%" y1="200.516%" x2="80.851%" y2="151.168%" id="oo67k78mqo">
            <stop stop-color="#60C281" offset="0%"/>
            <stop stop-color="#5FCF8D" offset="100%"/>
        </linearGradient>
        <linearGradient x1="-459.169%" y1="198.796%" x2="-683.867%" y2="49.832%" id="tc5smkkhtp">
            <stop stop-color="#66F" offset="0%"/>
            <stop stop-color="#6663FA" offset="17%"/>
            <stop stop-color="#645BEB" offset="38%"/>
            <stop stop-color="#634ED2" offset="60%"/>
            <stop stop-color="#603CB0" offset="84%"/>
            <stop stop-color="#603CB0" offset="100%"/>
        </linearGradient>
        <linearGradient x1="-22.389%" y1="68.642%" x2="95.996%" y2="38.155%" id="xobhslnf9q">
            <stop stop-color="#9A81D3" offset="0%"/>
            <stop stop-color="#989DE4" offset="41%"/>
            <stop stop-color="#95CAFF" offset="98%"/>
        </linearGradient>
        <linearGradient x1="893.868%" y1="109.187%" x2="970.463%" y2="114.56%" id="66ui5ojmkr">
            <stop stop-color="#5FC07E" offset="2%"/>
            <stop stop-color="#5CBC79" offset="17%"/>
            <stop stop-color="#49A55D" offset="100%"/>
        </linearGradient>
        <linearGradient x1="694.213%" y1="952.906%" x2="640.138%" y2="877.129%" id="9n54qfnvbs">
            <stop stop-color="#60C281" offset="0%"/>
            <stop stop-color="#5FCF9D" offset="99%"/>
            <stop stop-color="#5FCF9D" offset="100%"/>
        </linearGradient>
        <linearGradient x1="163.633%" y1="74.016%" x2="-22.96%" y2="34.521%" id="hs5b50z0st">
            <stop stop-color="#66F" offset="0%"/>
            <stop stop-color="#6663FA" offset="17%"/>
            <stop stop-color="#645BEB" offset="38%"/>
            <stop stop-color="#634ED2" offset="60%"/>
            <stop stop-color="#603CB0" offset="84%"/>
            <stop stop-color="#603CB0" offset="100%"/>
        </linearGradient>
        <linearGradient x1="81.066%" y1="-18.237%" x2="43.893%" y2="61.739%" id="gh6w5apyiu">
            <stop stop-color="#95A5FF" offset="2%"/>
            <stop stop-color="#8396FF" offset="38%"/>
            <stop stop-color="#677EFF" offset="100%"/>
        </linearGradient>
        <linearGradient x1="108.912%" y1="95.668%" x2="31.507%" y2="35.746%" id="flj2vtf42v">
            <stop stop-color="#667DFF" offset="0%"/>
            <stop stop-color="#6661FF" offset="66%"/>
            <stop stop-color="#6651FF" offset="100%"/>
        </linearGradient>
        <linearGradient x1="-34.113%" y1="230.589%" x2="95.198%" y2="-15.904%" id="kygvc8ay1w">
            <stop stop-color="#66F" offset="0%"/>
            <stop stop-color="#6663FA" offset="17%"/>
            <stop stop-color="#645BEB" offset="38%"/>
            <stop stop-color="#634ED2" offset="60%"/>
            <stop stop-color="#603CB0" offset="84%"/>
            <stop stop-color="#603CB0" offset="100%"/>
        </linearGradient>
        <linearGradient x1="138.075%" y1="76.197%" x2="-5.221%" y2="33.723%" id="ons5k8wm2x">
            <stop stop-color="#9A81D3" offset="0%"/>
            <stop stop-color="#989DE4" offset="41%"/>
            <stop stop-color="#95CAFF" offset="98%"/>
        </linearGradient>
        <linearGradient x1="84.803%" y1="81.711%" x2="44.332%" y2="44.931%" id="ag85tu4zfy">
            <stop stop-color="#B7DDFF" offset="2%"/>
            <stop stop-color="#A6C1FF" offset="48%"/>
            <stop stop-color="#95A5FF" offset="100%"/>
        </linearGradient>
        <linearGradient x1="59.505%" y1="152.259%" x2="45.044%" y2="-16.917%" id="q6vf3jchnz">
            <stop stop-color="#66F" offset="0%"/>
            <stop stop-color="#6663FA" offset="17%"/>
            <stop stop-color="#645BEB" offset="38%"/>
            <stop stop-color="#634ED2" offset="60%"/>
            <stop stop-color="#603CB0" offset="84%"/>
            <stop stop-color="#603CB0" offset="100%"/>
        </linearGradient>
        <linearGradient x1="110.498%" y1="44.19%" x2="39.852%" y2="49.365%" id="nfox477guA">
            <stop stop-color="#E06D9A" offset="2%"/>
            <stop stop-color="#E376A9" offset="100%"/>
        </linearGradient>
        <linearGradient x1="-87.694%" y1="-249.996%" x2="-119.887%" y2="-319.667%" id="a7pzz4mflB">
            <stop stop-color="#C55588" offset="2%"/>
            <stop stop-color="#D35E88" offset="100%"/>
        </linearGradient>
        <linearGradient x1="-159.945%" y1="56.209%" x2="141.625%" y2="42.358%" id="v9p8wnxg9C">
            <stop stop-color="#66F" offset="0%"/>
            <stop stop-color="#6663FA" offset="17%"/>
            <stop stop-color="#645BEB" offset="38%"/>
            <stop stop-color="#634ED2" offset="60%"/>
            <stop stop-color="#603CB0" offset="84%"/>
            <stop stop-color="#603CB0" offset="100%"/>
        </linearGradient>
        <linearGradient x1="41.223%" y1="134.479%" x2="55.812%" y2="-5.081%" id="4nnx81umkD">
            <stop stop-color="#9A81D3" offset="0%"/>
            <stop stop-color="#989DE4" offset="41%"/>
            <stop stop-color="#95CAFF" offset="98%"/>
        </linearGradient>
        <linearGradient x1="-692.954%" y1="49.96%" x2="-756.838%" y2="49.901%" id="pdkan2jz1E">
            <stop stop-color="#EF89BC" offset="2%"/>
            <stop stop-color="#E376A9" offset="100%"/>
        </linearGradient>
        <linearGradient x1="59.04%" y1="90.594%" x2="50.194%" y2="37.794%" id="eg49287y2F">
            <stop stop-color="#C55588" offset="2%"/>
            <stop stop-color="#D35E88" offset="100%"/>
        </linearGradient>
        <linearGradient x1="34.664%" y1="139.766%" x2="60.987%" y2="-5.724%" id="hthjtclc4G">
            <stop stop-color="#66F" offset="0%"/>
            <stop stop-color="#6663FA" offset="17%"/>
            <stop stop-color="#645BEB" offset="38%"/>
            <stop stop-color="#634ED2" offset="60%"/>
            <stop stop-color="#603CB0" offset="84%"/>
            <stop stop-color="#603CB0" offset="100%"/>
        </linearGradient>
        <linearGradient x1="165.044%" y1="31.683%" x2="200.043%" y2="25.766%" id="ucw19qomyH">
            <stop stop-color="#E5B965" offset="2%"/>
            <stop stop-color="#F2C377" offset="100%"/>
        </linearGradient>
        <linearGradient x1="34.681%" y1="158.702%" x2="55.848%" y2="18.02%" id="ssp5ng909I">
            <stop stop-color="#EAC170" offset="2%"/>
            <stop stop-color="#F2C377" offset="100%"/>
        </linearGradient>
        <linearGradient x1="259.395%" y1="67.12%" x2="-37.911%" y2="42.908%" id="sb1zy30yhJ">
            <stop stop-color="#66F" offset="0%"/>
            <stop stop-color="#6663FA" offset="17%"/>
            <stop stop-color="#645BEB" offset="38%"/>
            <stop stop-color="#634ED2" offset="60%"/>
            <stop stop-color="#603CB0" offset="84%"/>
            <stop stop-color="#603CB0" offset="100%"/>
        </linearGradient>
        <linearGradient x1="52.218%" y1="123.559%" x2="48.531%" y2="3.247%" id="o1pbyk5zwK">
            <stop stop-color="#9A81D3" offset="0%"/>
            <stop stop-color="#989DE4" offset="41%"/>
            <stop stop-color="#95CAFF" offset="98%"/>
        </linearGradient>
        <linearGradient x1="-11.946%" y1="42.004%" x2="60.896%" y2="51.31%" id="m9038ty3eL">
            <stop stop-color="#E5B965" offset="2%"/>
            <stop stop-color="#F2C377" offset="100%"/>
        </linearGradient>
        <linearGradient x1="39.801%" y1="88.069%" x2="53.197%" y2="38.193%" id="p8avsnwjcM">
            <stop stop-color="#EAC170" offset="2%"/>
            <stop stop-color="#F2C377" offset="100%"/>
        </linearGradient>
        <linearGradient x1="55.227%" y1="22.656%" x2="79.446%" y2="80.613%" id="ne583giv5N">
            <stop stop-color="#FFE064" stop-opacity="0" offset="0%"/>
            <stop stop-color="#FFDD5F" offset="100%"/>
        </linearGradient>
        <linearGradient x1="55.227%" y1="36.817%" x2="79.446%" y2="64.759%" id="3gty2wu4tO">
            <stop stop-color="#FFE064" stop-opacity="0" offset="0%"/>
            <stop stop-color="#FFDD5F" offset="100%"/>
        </linearGradient>
        <linearGradient x1="62.561%" y1="37.536%" x2="79.446%" y2="67.916%" id="u7ox6wxaoP">
            <stop stop-color="#FFF4C7" stop-opacity="0" offset="0%"/>
            <stop stop-color="#FFF8DE" offset="100%"/>
        </linearGradient>
        <linearGradient x1="62.561%" y1="39.09%" x2="79.446%" y2="65.682%" id="uchvr4nsrQ">
            <stop stop-color="#FFE064" stop-opacity="0" offset="0%"/>
            <stop stop-color="#FFDD5F" offset="100%"/>
        </linearGradient>
        <linearGradient x1="50%" y1="0%" x2="50%" y2="100%" id="fcba7ss93R">
            <stop stop-color="#88E89A" offset="0%"/>
            <stop stop-color="#51CE63" offset="100%"/>
        </linearGradient>
        <linearGradient x1="25.449%" y1="5.106%" x2="63.16%" y2="77.489%" id="rey8y5goxS">
            <stop stop-color="#51CE63" offset="0%"/>
            <stop stop-color="#54A356" offset="100%"/>
        </linearGradient>
        <linearGradient x1="79.732%" y1="6.54%" x2="33.111%" y2="76.15%" id="jrzpyt312T">
            <stop stop-color="#52C861" offset="0%"/>
            <stop stop-color="#51A256" offset="100%"/>
        </linearGradient>
        <linearGradient x1="50%" y1="0%" x2="50%" y2="100%" id="gqjglfpy2U">
            <stop stop-color="#FFE56C" offset="0%"/>
            <stop stop-color="#FFC73A" offset="100%"/>
        </linearGradient>
        <linearGradient x1="50%" y1="0%" x2="50%" y2="100%" id="10djdahvbV">
            <stop stop-color="#426386" offset="0%"/>
            <stop stop-color="#34485D" offset="100%"/>
        </linearGradient>
        <linearGradient x1="50%" y1="0%" x2="50%" y2="100%" id="xoviti524W">
            <stop stop-color="#48EDA0" offset="0%"/>
            <stop stop-color="#41B984" offset="100%"/>
        </linearGradient>
        <linearGradient x1="50%" y1="0%" x2="50%" y2="100%" id="tnuocsiz6X">
            <stop stop-color="#E9633B" offset="0%"/>
            <stop stop-color="#C03B14" offset="100%"/>
        </linearGradient>
        <linearGradient x1="50%" y1="0%" x2="50%" y2="100%" id="2w6nblvvtY">
            <stop stop-color="#0A633E" offset="0%"/>
            <stop stop-color="#00824D" offset="100%"/>
        </linearGradient>
        <linearGradient x1="50%" y1="0%" x2="50%" y2="100%" id="gfxcz4bnzZ">
            <stop stop-color="#17EB94" offset="0%"/>
            <stop stop-color="#01D07B" offset="100%"/>
        </linearGradient>
        <linearGradient x1="50%" y1="0%" x2="50%" y2="100%" id="tf9bepy0oaa">
            <stop stop-color="#4898EE" offset="0%"/>
            <stop stop-color="#2F74BF" offset="100%"/>
        </linearGradient>
        <linearGradient x1="50%" y1="0%" x2="50%" y2="100%" id="sexnyr0uwab">
            <stop stop-color="#EB5FCD" offset="0%"/>
            <stop stop-color="#D3319E" offset="100%"/>
        </linearGradient>
        <linearGradient x1="32.775%" y1="3.975%" x2="63.93%" y2="82.77%" id="wss8rwxhkac">
            <stop stop-color="#FFF" offset="0%"/>
            <stop stop-color="#FFF" stop-opacity="0" offset="100%"/>
        </linearGradient>
        <linearGradient x1="36.373%" y1="3.975%" x2="59.796%" y2="79.141%" id="3upm035ehad">
            <stop stop-color="#FFF" offset="0%"/>
            <stop stop-color="#FFF" stop-opacity="0" offset="100%"/>
        </linearGradient>
        <linearGradient x1="34.591%" y1="3.975%" x2="53.333%" y2="79.367%" id="nqgj234fcae">
            <stop stop-color="#FFF" offset="0%"/>
            <stop stop-color="#FFF" stop-opacity="0" offset="100%"/>
        </linearGradient>
    </defs>
    <g fill="none" fill-rule="evenodd">
        <g fill-rule="nonzero">
            <path fill="#246649" d="M148.689 336.988H232.509h-30.492z"/>
            <path fill="#3CA978" d="M202.017 336.988h30.492l81.68 162.134h-30.492z"/>
            <path fill="#1D2934" d="M202.017 336.988h80.447-30.492z"/>
            <path fill="#162433" d="M251.972 336.988h30.492l31.725 62.358h-30.492z"/>
            <path fill="#1D2934" d="M314.75 336.988h80.446-30.493z"/>
            <path fill="url(#4fxqv88uxa)" d="m216.015.21-81.007 162.134L53.328.21h49.955l31.725 62.358L166.062.21z" transform="translate(148.689 336.778)"/>
            <path fill="#243241" d="M364.703 336.988h30.493l-81.007 162.134h-30.492z"/>
            <path fill="#246649" d="M364.703 336.988H449.2h-30.492z"/>
            <path fill="url(#mepkq5d69b)" d="M270.018.21h30.492L165.5 269.13h-30.492z" transform="translate(148.689 336.778)"/>
            <path fill="url(#kvfe7667tc)" d="m270.018.21-135.01 268.92L0 .21h53.328l81.68 162.134L216.015.21z" transform="translate(148.689 336.778)"/>
        </g>
        <path d="M190.33 618.41c-.617 3.094-3.164 9.038-7.641 17.834-6.716 13.192-105.112 45.308-68.045 56.13 37.068 10.823 105.59-21.448 126.53-12.279 20.94 9.17-17.79 23.028 9.746 23.066 27.535.036 40.589-29.716 64.569-28.175 23.98 1.54 30.425 18.813 58.229 17.389 27.803-1.425 138.332-14.947 86.493-24.399-34.56-6.301-93.05-22.37-175.473-48.204l-94.408-1.362z" fill="#000"/>
        <path d="M83.736 35.381h.084-.084c.207 0 .414.002.62.007h.004c.398.009.796.026 1.192.052h75.21c.6-.04 1.204-.059 1.81-.059 4.57 0 8.845 1.128 12.644 3.028 4.808 1.662 12.05 9.973 12.644 10.685 2.976 3.795 9.6 11.953 17.403 19.94l20.59-9.848s5.759-.95 13.06 4.571c14.545 10.982 13.298 31.285 12.467 37.934-.297 5.758-3.562 12.704-7.302 18.64-3.916 6.277-14.018 13.377-24.962 12.87a24.754 24.754 0 0 1-2.049-.107c-12.371-.133-24.357-4.54-35.17-11.07 2.906 19.586 6.554 37.727-6.8 48.41-.022 2.983-1.272 7.502-2.825 11.986l-.261.747-.266.744-.27.74c-2.443 6.643-5.223 12.616-5.223 12.616l3.562 8.31c-3.68-3.858-28.139-10.329-57.88-15.137-31.641-5.105-54.853 5.046-55.921 8.489l-.042-.041c-.426-.416-4.037-3.86-8.328-5.42-4.79-1.762-5.036-5.872-5.046-6.46v-.07l.017-.099.07-.385c.275-1.495 1.15-6.252 2.137-11.315l.138-.709c.278-1.42.563-2.852.843-4.233a35.44 35.44 0 0 1-2.573-5.34l-.25-.675-.106.009a39.078 39.078 0 0 1-22.07-4.921C9.928 153.17 2.16 141.98.983 128.642c-.772-8.845 1.424-17.275 5.876-24.28 1.069-2.315 3.087-4.75 6.234-7.54 1.187-1.127 2.493-2.196 3.799-3.205 4.987-3.977 11.754-8.608 20.362-14.425 11.22-7.55 17.577-19.22 20.055-24.707 3.61-11.079 14.038-19.104 26.308-19.104h.119z" fill="url(#eos47mhlcd)" transform="matrix(-1 0 0 1 413.364 419.063)"/>
        <g opacity=".4" fill-rule="nonzero">
            <path d="M303.392 498.218c-1.538-7.605-.08-12.596-.08-12.596s-.39 3.038 2.674 7.935c-.039 6.07 1.156 9.237 1.156 9.237l.246-.18-.246.213s-1.817-1.483-3.75-4.609zM310.636 497.142c.735.74 1.421 1.253 1.917 1.497l-.009-.005s.557.2.655.067c.679-.718.845-2.057.392-4.573-2.586-1.477-2.913-3.78-2.913-3.78s-.466 3.197-.042 6.794z" fill="#FCFCFE" opacity=".5"/>
            <path d="M303.311 485.622s-2.128 7.288 1.473 17.671c.099.3 0 .633-.261.832l-3.799 2.663c-.36.266-.884.1-1.047-.333-1.015-2.762-3.798-11.914-.983-21.93.131-.4.557-.633.95-.467l3.667 1.564zM310.58 500.265l-3.438 2.53s-1.834-4.86-.884-14.078a.71.71 0 0 1 1.08-.532l3.34 2.163s-.655 4.493.295 8.819c.098.432-.066.865-.393 1.098zM316.932 494.64l-3.176-2.096c-.197-.133-.491.067-.426.3.753 3.361.655 5.025-.13 5.857-.099.133-.656-.067-.656-.067.524.267.655.133.655.133.524-.399 2.489-1.83 3.733-2.695.49-.366.49-1.098 0-1.431z" fill="#FFF"/>
        </g>
        <path d="M179.259 494.574c-2.315 6.352 3.384 14.544 12.763 18.343 9.38 3.8 18.878 1.722 21.252-4.63 2.316-6.352 4.69-11.16 4.69-11.16l-32.947-15.554c-.06 0-1.484 3.502-5.758 13z" stroke="#444B75" stroke-width="2" stroke-linecap="round" stroke-linejoin="round"/>
        <path d="M205.26 478.664c9.38 3.8 15.079 11.992 12.764 18.344-2.316 6.352-11.873 8.43-21.253 4.63s-15.078-11.992-12.763-18.344c2.315-6.351 11.873-8.43 21.252-4.63z" fill="#444B75" fill-rule="nonzero"/>
        <path d="M189.291 436.99s-1.128 3.503-1.424 6.174c-.89 8.311.237 15.435.356 16.444l4.452-12.763-3.384-9.854z" fill="#E5926F"/>
        <path d="m209.944.831 20.005-.297c1.01 0 1.544.713 1.247 1.662l-17.868 52.656c-.297.95-1.366 1.722-2.375 1.722l-20.006.297c-1.009 0-1.543-.713-1.246-1.662l17.868-52.656c.297-.95 1.366-1.722 2.375-1.722z" fill="url(#kf2dyalare)" fill-rule="nonzero" transform="matrix(-1 0 0 1 413.364 419.063)"/>
        <path d="m196.712 466.257-9.102 14.472a7.488 7.488 0 0 0-1.584 2.565c-2.077 5.7 3.028 13.001 11.398 16.385 8.37 3.384 16.86 1.484 18.937-4.156.24-.655.383-1.332.438-2.022l3.48-12.819-23.567-14.425z" fill="#CE7752"/>
        <path d="M216.777 493.505c-.06.534-.119 1.069-.297 1.544-4.452-.357-9.38-2.85-13.238-7.065-5.937-6.47-7.48-14.96-4.037-20.124l21.074 12.822-3.502 12.823z" fill-opacity=".15" fill="#000" fill-rule="nonzero"/>
        <path d="M210.01 464.892s18.283 14.96 6.589 19.53c-8.37 3.265-25.586-8.964-27.486-23.389-1.603-12.229 20.896 3.859 20.896 3.859z" fill="#D6805C"/>
        <path d="M200.927 475.518c-13.595-8.43 12.822-13.476 17.097-2.078 1.365 2.018 2.433 4.156 2.433 6.055-3.68 1.722-9.854 2.019-19.53-3.977z" fill-opacity=".15" fill="#000" fill-rule="nonzero"/>
        <path d="M215.055 471.065c7.243.95 7.302-5.342 4.156-6.292 4.749-.534 5.105-5.462-1.425-7.836-8.964-3.265-19.65-3.562-19.65-3.562l.654-2.196s3.918 1.543 6.352 2.315c5.64 1.78 8.37-4.156-1.722-9.855-5.758-3.205-10.27-4.333-12.823.653-2.73 5.224-6.59 15.554 4.63 28.732 3.088 9.024 15.435 4.75 17.691 3.206 3.206-2.018 2.968-3.68 2.137-5.165z" fill="#E28E6B"/>
        <path d="M202.12 461.62c-3.967-.105-7.446.254-10.3 1.163a.468.468 0 1 0 .285.893c2.74-.873 6.119-1.222 9.991-1.12 3.756.1 7.784.617 11.838 1.415a89.57 89.57 0 0 1 3.834.84l.857.214.746.194.659.182a.468.468 0 1 0 .261-.9l-.678-.187-.757-.197-.278-.07a89.545 89.545 0 0 0-4.463-.996c-4.101-.807-8.18-1.33-11.994-1.43zM215.035 470.896l-1.132-.09c-.187-.015-.373-.028-.559-.041l-1.1-.071-1.08-.058-1.058-.045c-6.108-.217-11.089.292-14.603 1.95a.468.468 0 1 0 .4.848c3.256-1.537 7.954-2.044 13.71-1.875l1.026.037.522.023 1.059.057 1.08.07 1.1.082.557.046a.468.468 0 1 0 .078-.933zM204.807 454.13l.013.003.098.007.05-.004.034-.007.044-.017.153-.075.174-.403-.069-.21-.237-.182-.057-.038c-.009-.003-.009.002-.01.009l-.224-.03-.297-.031-.514-.047-.576-.045-.308-.02a48.528 48.528 0 0 0-4.558-.089c-4.45.134-7.807.925-9.452 2.654a.468.468 0 0 0 .678.646c1.417-1.49 4.59-2.237 8.802-2.363a47.605 47.605 0 0 1 4.47.086l.59.042.534.045.649.066.012.01v-.008z" fill="#CF744D" fill-rule="nonzero"/>
        <path d="M194.682 449.257a.468.468 0 0 0-.41.838l.077.037 9.973 3.8a.468.468 0 0 0 .41-.839l-.077-.037-9.973-3.8z" fill="#CF744D" fill-rule="nonzero"/>
        <g fill="#444B75" fill-rule="nonzero">
            <path d="M237.333 500.355a.937.937 0 0 0-1.04.685l-.022.107-5.877 40.367a.937.937 0 0 0 1.832.378l.022-.108 5.877-40.367a.937.937 0 0 0-.792-1.062z"/>
        </g>
        <g>
            <path d="M327.207 500.282a.937.937 0 0 0-1.73.71l.042.102 12.244 25.465a.937.937 0 0 0 1.73-.71l-.042-.102-12.244-25.465zM346.812 548.706l.075.377.139.751.125.746.111.739c.018.123.034.245.05.367l.092.729.04.362.07.717.057.709c.142 1.996.123 3.882-.05 5.6l-.068.6-.08.584c-.679 4.522-2.52 7.649-5.362 8.122l-2.486.536-2.937.62-2.72.565-5.182 1.063a.937.937 0 0 1-1.071-.61l-.455-1.347-.419-1.276-.3-.93a227.815 227.815 0 0 1-2.576-8.627c-.696-2.518-1.32-4.96-1.85-7.286l-.233-1.038-.219-1.015-.204-.99-.19-.968-.09-.475-.167-.93-.152-.906a72.389 72.389 0 0 1-.071-.444l-.13-.868a61.6 61.6 0 0 1-.059-.425l-.106-.83-.09-.803-.075-.777c-.232-2.674-.164-4.858.244-6.489l.031-.117-.005.08c0-.442.31-.824.742-.916l3.077-.645 2.794-.578 2.77-.566 1.36-.274 3.093-.615c2.108-.366 4.343.938 6.368 3.373l.335.416c.223.284.442.582.658.893l.322.475c.32.485.63.998.933 1.537l.298.546c.443.833.864 1.722 1.257 2.657l.257.63c.254.638.494 1.296.72 1.97l.222.681.211.692.201.703.097.355.185.717c.15.602.288 1.213.413 1.833zm-12.013-15.652-.14.02-1.818.36-1.231.246-2.732.554-2.784.572-3.872.807-.03.152c-.38 1.975-.262 4.893.285 8.565l.134.86.149.887.164.913.178.937.194.963.207.986.11.502.228 1.022c.525 2.296 1.141 4.711 1.83 7.203a225.962 225.962 0 0 0 2.555 8.555l.297.923.415 1.264.184.547 2.988-.612 4.094-.85 4.255-.9 1.198-.26c1.947-.325 3.333-2.886 3.875-6.696l.073-.567c.022-.192.042-.386.06-.583l.05-.6.035-.616c.005-.104.01-.209.013-.314l.017-.638c.005-.323.005-.65 0-.984l-.017-.672c-.012-.339-.029-.683-.05-1.03l-.052-.703-.03-.355-.073-.717-.087-.727a41.77 41.77 0 0 0-.282-1.855l-.138-.755-.076-.38a38.449 38.449 0 0 0-2.196-7.203l-.275-.637c-2.278-5.127-5.328-8.448-7.705-8.184z" fill="#444B75" fill-rule="nonzero"/>
            <path d="m366.74 504.68-.108.012c-14.599 2.494-26.748 13.014-31.365 27.169a.937.937 0 1 0 1.782.58c4.401-13.493 15.987-23.526 29.899-25.902a.937.937 0 0 0-.207-1.86zM321.495 534.348c-4.274.712-6.055 9.32-4.037 19.293 2.019 9.973 7.124 17.453 11.398 16.74 4.274-.712 6.055-9.32 4.037-19.293-2.018-9.973-7.124-17.453-11.398-16.74z" fill="#444B75" fill-rule="nonzero"/>
            <path d="M46.735 37.606c20.976 3.572 40.06 7.625 47.968 9.355 2.757-1.231 4.976-2.202 7.361-2.322.922-.119 1.652-.045 2.195.09.231.055.49.125.773.21l-.12-.031c.192.047.38.103.565.168 1.221.389 2.781.976 4.374 1.593l1.305.507c2.167.844 4.24 1.657 5.45 2.006 2.672.772 5.343 1.484 8.015 2.315 1.603.475 2.612 2.256 2.196 3.918-.342 1.482-1.668 2.362-3.087 2.272l-.178-.016c-2.671-.356-5.402-.712-8.073-1.068l-1.068-.139c1.875 3.454 4.15 7.798 7.123 13.199 1.78 3.68-3.028 6.767-6.53 2.374-1.55 1.378-4.32 1.423-5.307.299l-.095-.12c-.727-1.034-3.136-3.724-5.65-6.512l-.945-1.047c-2.515-2.787-4.94-5.477-5.694-6.51-1.137-1.584-2.523-2.301-4.533-2.187.388.903.8 1.92 1.213 2.955l.31.78c.928 2.337 1.837 4.652 2.476 5.872a438.426 438.426 0 0 1 3.8 7.42c.771 1.484.118 3.443-1.366 4.274-1.31.741-2.895.388-3.755-.692l-.104-.139a460.677 460.677 0 0 0-4.749-6.649c-1.18-1.617-2.36-3.234-3.563-4.78-5.472 2.257-15.275 5.344-23.447 2.525-8.532-2.952-10.177-1.974-10.414-1.759l-.024.024-.01.013s-6.309 1.554-10.75 2.355c-.621.262-1.238.355-1.836.257-3.62-.594-5.164-7.955-3.443-16.444 1.709-8.425 5.99-14.804 9.595-14.319l.022-.047z" fill="url(#i76fzjz0cf)" transform="matrix(-1 0 0 1 368.586 499.057)"/>
            <path d="M269.27 543.753c-1.95-.585-3.748-.66-5.708-.184-1.31.324-2.456 1.016-3.587 2.159l-.145.148-.29.311a14.68 14.68 0 0 0-.145.164l-.292.345c-.098.119-.197.242-.296.37l-.302.394-.153.208-.311.437-.159.23-.324.484-.165.254-.34.534-.352.569-.365.606-.38.646-.395.686-.626 1.11-.568 1.031-6.673 12.373-1.063 1.947c-2.197 4.54 3.716 7.388 7.318 2.87a.468.468 0 0 0-.733-.584c-2.958 3.711-7.41 1.567-5.753-1.856l2.938-5.414 4.986-9.249.573-1.031.405-.716.388-.673.372-.633.357-.594.343-.556.331-.522.32-.487.31-.455.301-.425.148-.2.29-.383.143-.18.282-.344.14-.162.276-.308.274-.286c1.016-1.026 2.013-1.628 3.145-1.908 1.792-.434 3.42-.367 5.216.172a.468.468 0 0 0 .27-.898z" fill="#CF744D" fill-rule="nonzero"/>
            <path d="m256.943 563.47 2.011-3.228 1.348-2.138.774-1.212.484-.75.916-1.406.641-.97.601-.894.737-1.07.339-.482.32-.445.44-.598.269-.35.126-.16c.898-1.198 2.644-2.183 5.463-2.67a.468.468 0 1 0-.16-.923c-2.926.505-4.851 1.548-5.92 2.861l-.405.519-.303.403-.327.447-.35.49-.565.81-.404.591-.426.63-.417.627-.856 1.302-.606.934-1.624 2.543-2.992 4.79-2.443 3.965-.108.165c-.955 1.558-.533 3.685.98 4.868 1.39 1.06 3.296.962 4.476-.215l.614-.663 10.219-11.538.634-.708.178-.21a9.947 9.947 0 0 1 1.582-1.485 8.768 8.768 0 0 1 3.456-1.598.468.468 0 1 0-.196-.916 9.697 9.697 0 0 0-3.823 1.765c-.493.37-.93.765-1.323 1.176l-.209.224-.271.31-.144.17-1.902 2.126-8.843 9.996-.536.585c-.84.938-2.284 1.044-3.34.24-1.131-.886-1.451-2.471-.762-3.623l2.647-4.286z" fill="#CF744D" fill-rule="nonzero"/>
            <path d="M282.699 548.741a.468.468 0 0 0-.594-.293c-2.946 1-4.682 2.349-5.54 3.892l-.139.25-.143.273-.228.459-.244.523-.265.594-.29.674-.43 1.035-.621 1.536-1.497 3.744-.521 1.265-.298.687-.214.462-.201.407-.082.157a438.186 438.186 0 0 0-3.8 7.422c-.885 1.701-.16 3.94 1.55 4.898 1.55.876 3.488.438 4.473-.97l1.275-1.808 1.207-1.697 1.152-1.605.744-1.028 2.132-2.909.714-.959.788-1.037.58-.745.426-.535.578-.708a.468.468 0 1 0-.724-.596l-.7.863-.556.702-.43.555-.61.805-1.052 1.413-1.904 2.6-1.51 2.093-1.19 1.668-1.252 1.773-.435.617c-.71 1.014-2.114 1.33-3.246.691-1.278-.716-1.825-2.405-1.175-3.656.99-1.98 1.985-3.932 3.015-5.917l.907-1.741.252-.518.277-.618.337-.795.881-2.175 1.356-3.394.451-1.101.303-.72.276-.635.252-.558.156-.333.22-.445.139-.264.132-.24c.741-1.333 2.29-2.536 5.025-3.464a.468.468 0 0 0 .293-.594z" fill="#CF744D" fill-rule="nonzero"/>
        </g>
        <g>
            <path d="M363.347 612.055s-65.538-7.895-118.966-3.68c-38.468 3.086-89.046-1.07-89.046-1.07-17.69-23.092 33.422 58 66.37 58 33.658 0 31.878.89 31.878.89l80.32 1.781 29.444-55.92z" fill="#000" fill-rule="nonzero"/>
            <path d="M140.138 586.707c.178.534.356 1.068.594 1.662 10.744 20.659 19.53 35.856 32.828 43.751 13.713 8.133 25.23-.534 28.613-3.562.416 2.078 1.306 3.68 2.79 4.393 1.722.831 3.86.416 6.115-1.009l1.306.712 20.065-28.613-53.606-46.304h-.475c-3.62-3.918-8.607-6.47-14.306-7.005-12.882-1.187-24.636 8.786-26.24 22.202-.593 4.927.298 9.677 2.316 13.773z" fill="#36394C"/>
            <path d="M202.47 593s-24.398 7.657-34.015 33.955c-8.846 24.162 62.391-14.128 58.83-26.476-3.503-12.288-24.815-7.48-24.815-7.48z" fill-opacity=".15" fill="#000" fill-rule="nonzero"/>
            <path d="M152.248 692.375c-30.097-31.582-29.979-41.08-18.58-48.857 5.342-3.384 14.365-6.827 16.324-10.448 1.603-2.968 1.069-3.265 3.503-4.927 1.662-.653 6.233-.178 7.717-.713 10.804-4.036 7.124 1.9.594 11.933-13.001 20.065-2.494-4.097-.06-1.485 6.352-1.662-1.484-5.164 4.75 5.462 5.995 10.27 24.873 8.905 15.315 13l-20.54 19.59c.06 0-.118 4.75-9.023 16.445z" fill="#1E2446"/>
            <path fill="#B3B3B3" d="m201.105 610.512-36.51 14.722 11.577 29.741 36.509-14.722z"/>
            <path d="M239.593 140.1c-5.283 4.63-12.882 6.767-16.206 11.338-2.197 3.027-5.758 8.251-2.909 20.124-5.52-6.767-7.895-10.27-7.895-10.27l-24.696-25.526c-1.009-.416-2.018-.95-2.968-1.485-2.612-1.543-3.028-5.105-.95-7.658 1.9-2.315 3.68-5.283 4.987-8.726.712-1.78 1.246-3.621 1.662-5.462.772-3.265 4.334-5.342 7.42-4.274 1.722.594 3.265 1.128 4.571 1.484 1.9-3.383-7.895-9.854-7.895-9.854s15.375 2.256 21.55 7.777c2.433 1.662 1.84 1.959 3.502 4.927 1.959 3.562 10.982 7.064 16.325 10.448 8.014 5.818 8.964 10.032 3.502 17.156z" fill="url(#m9f7df6hfg)" transform="matrix(-1 0 0 1 374.032 519.388)"/>
            <path d="M169.235 637.445a.937.937 0 0 0-.68 1.137l.086.317.117.398.141.452c.29.907.656 1.915 1.102 3 1.274 3.094 2.945 6.189 5.063 9.081 1.783 2.434 3.81 4.616 6.096 6.483a.937.937 0 1 0 1.185-1.451c-2.158-1.762-4.077-3.828-5.769-6.139-2.023-2.761-3.623-5.725-4.842-8.688a37.894 37.894 0 0 1-1.05-2.857l-.111-.354-.125-.42-.076-.279a.937.937 0 0 0-1.137-.68zM157.481 646.409a.937.937 0 0 0-.68 1.137l.086.317.117.398.141.452c.29.907.655 1.915 1.102 3 1.274 3.094 2.945 6.189 5.063 9.081 1.783 2.434 3.81 4.616 6.095 6.483a.937.937 0 0 0 1.186-1.451c-2.158-1.762-4.077-3.828-5.769-6.139-2.023-2.761-3.623-5.725-4.843-8.688a38.724 38.724 0 0 1-.927-2.482l-.18-.559-.142-.465-.067-.234-.045-.17a.937.937 0 0 0-1.137-.68zM163.358 641.897a.937.937 0 0 0-.68 1.137l.057.212.146.503.141.453c.29.907.655 1.915 1.102 2.999 1.274 3.095 2.945 6.19 5.063 9.082 1.783 2.433 3.81 4.616 6.096 6.482a.937.937 0 0 0 1.185-1.451c-2.158-1.762-4.077-3.828-5.769-6.139-2.023-2.761-3.623-5.724-4.843-8.687a38.723 38.723 0 0 1-.927-2.483l-.18-.559-.178-.59-.076-.279a.937.937 0 0 0-1.137-.68z" fill="#FFF" fill-rule="nonzero"/>
            <path d="m365.068 601.073 7.658 28.257-80.141-42.445s56.692-4.393 72.483 14.188z" fill="#35384C"/>
            <path d="M308.02 586.47c10.388.059 24.398.77 36.33 3.858 5.758 8.133 10.983 18.58 10.27 29.444l-45.473-24.101c-.95-3.265-1.424-6.412-1.128-9.202z" fill-opacity=".15" fill="#000" fill-rule="nonzero"/>
            <path d="M116.472 79.43c-9.795 12.644-50.103 64.468-68.625 68.03-.593.119-1.187.238-1.721.297a37.621 37.621 0 0 1-11.932 1.247C14.84 147.876-.594 133.094.356 115.048c.653-11.814 9.855-24.102 22.5-29.148l51.468-38.527s46.6 26.357 42.148 32.056z" fill="url(#9r58y7sslh)" transform="matrix(-1 0 0 1 374.032 519.388)"/>
            <path d="M353.386 594.57a.937.937 0 0 0-.77.98l.013.108 4.453 24.818c.913 4.969-4.494 8.833-8.871 6.428l-.18-.103-50.103-29.504a.937.937 0 0 0-1.042 1.554l.091.06 50.101 29.503c5.726 3.396 12.901-1.549 11.885-8.053l-.037-.22-4.452-24.814a.937.937 0 0 0-.98-.77l-.108.013z" fill="#41445E" fill-rule="nonzero"/>
            <path d="M289.438 637.225c3.265-11.576-.95-26.595-.95-26.595l-12.822 13.773c-.06 0 8.311 7.302 13.772 12.822z" fill-opacity=".15" fill="#000" fill-rule="nonzero"/>
            <path fill="url(#hjdbf7bubi)" fill-rule="nonzero" d="m163.251.831 84.95-.415-44.107 76.757-84.891.416z" transform="matrix(-1 0 0 1 374.032 519.388)"/>
            <path d="M250.02 702.585c27.961-17.037 34.491-24.398 35.204-31.344 1.187-11.992-7.54-16.919-13.773-22.558-2.137-1.9.06-5.165-1.365-6.827-9.736-5.7-17.453 5.758-17.453 5.758s7.598-6.174 4.749-2.968c-4.75-1.781-7.599-4.809-16.681 5.046-8.727 9.439-10.923 11.695-4.215 8.964-.178 11.1-.06 12.585-.06 12.585s3.443 7.242 8.668 24.161c.83 2.73 2.315 6.352 4.927 7.183z" fill="#1E2446"/>
            <path d="M127.989 178.864c2.553-7.005 4.155-14.426-.238-19.65-7.005-8.43-21.49-4.393-25.882-6.708-6.59-7.36-7.361-10.388-3.384-15.91 3.324-4.095 7.955-6.886 8.37-10.329.297-2.85-.297-3.146 1.188-4.808 9.735-5.7 15.315-8.192 15.315-8.192s-4.274 5.224-1.484 8.37c4.75-1.781 9.38-9.498 18.403.415 8.727 9.558 6.47 13.773.831 20.481L130.72 170.79c.059-.059-.475 1.425-2.731 8.074z" fill="url(#ilyp1x34lj)" transform="matrix(-1 0 0 1 374.032 519.388)"/>
            <path d="M255.529 654.213c-.95-.025-2.256.05-3.796.309-2.37.4-4.72 1.154-6.921 2.352-4.398 2.392-7.707 6.274-9.458 11.892a.937.937 0 1 0 1.789.557c1.602-5.14 4.584-8.638 8.564-10.804 2.006-1.091 4.16-1.783 6.337-2.15a20.915 20.915 0 0 1 2.27-.258l.452-.02.202-.006.356-.001.228.005a.937.937 0 0 0 .207-1.86l-.156-.013-.074-.003zM251.967 647.09c-.95-.026-2.256.049-3.796.308-2.37.4-4.72 1.154-6.921 2.352-4.398 2.392-7.707 6.275-9.458 11.892a.937.937 0 0 0 1.789.558c1.602-5.14 4.584-8.639 8.564-10.804 2.006-1.092 4.16-1.783 6.337-2.15a20.915 20.915 0 0 1 2.27-.259l.234-.012.42-.013.357-.002.227.005a.937.937 0 0 0 .207-1.859l-.137-.013-.093-.003z" fill="#FFF" fill-rule="nonzero"/>
            <path d="m212.325 638.947 19.887 23.093c0 .118 1.009-19.412 38.17-15.376 35.619 3.8-10.329-39.655-58.057-7.717z" fill="#000" fill-rule="nonzero"/>
            <path d="M178.983 93.38c2.968 2.908 3.858 9.913 1.84 17.334-2.434 8.964-8.133 15.138-12.704 13.832-.416-.119-.831-.356-1.247-.594l-9.854-4.037s-12.051 13.892-30.632 6.352c-13.298-5.402-19.768-12.585-40.368-34.668-11.338-1.484-20.599-10.686-21.608-22.5a23.975 23.975 0 0 1 22.261-26.12c5.937-.415 11.517 1.307 16.029 4.512l74.62 44.88c.475.178.95.474 1.366.83l.297.179z" fill="url(#fjel7s82ck)" transform="matrix(-1 0 0 1 374.032 519.388)"/>
            <path d="M209.07 606.514a.937.937 0 0 0-1.158-.643c-5.224 1.492-7.057 10.33-4.506 19.727 2.549 9.387 8.62 15.986 13.866 14.487a.937.937 0 1 0-.515-1.801c-3.912 1.117-9.232-4.666-11.542-13.177-2.318-8.536-.704-16.316 3.211-17.435a.937.937 0 0 0 .644-1.158z" fill="#41445E" fill-rule="nonzero"/>
        </g>
        <g>
            <path d="M290.507 435.388c-17.275 1.187-31.225 3.918-31.166 6.114.06 2.197 18.284 13.832 35.559 12.348 23.211-2.018 27.13-14.426 27.07-16.622-.06-2.196-14.188-3.028-31.463-1.84z" fill="#7481F0"/>
            <path d="M278.931 472.668c.475-7.836 12.882-16.325 22.083-21.549 1.01-.475 1.96-1.009 2.85-1.425 14.603-7.598 13.713-9.913 12.11-10.804-3.324-1.84-11.16-2.374-24.755-1.425-13.594.95-22.736 3.562-24.22 4.334-8.727 4.512 1.365 9.142 3.443 12.229 2.73 4.037 6.174 10.033 8.489 18.64z" fill="#425ABF"/>
            <path d="M280.415 456.521c-5.818 0-10.33 3.74-10.151 8.43.178 4.63 5.046 8.43 10.863 8.43 5.818 0 10.33-3.74 10.152-8.43-.178-4.69-5.046-8.43-10.864-8.43z" fill="#BFC9FF"/>
            <path d="M303.389 454.384c0 2.553-7.599 5.343-16.978 6.293-9.38.95-17.038-.297-17.038-2.85 0-.297.12-.593.297-.83h-.178l4.452-39.24 27.486-.475 1.9 36.45c0 .237.059.474.059.652z" fill="#CE7753"/>
            <path d="m277.506 492.496 55.209-37.637-10.804-17.868-1.544.296-6.53 7.718s-34.194 15.256-34.906 27.723c-1.662-6.293-4.63-12.645-7.717-17.275l-7.896-13.357-3.918-.534-4.69 15.078c-2.137 13.535 22.796 35.856 22.796 35.856z" fill="#5E75F9"/>
            <path d="M255.645 452.626a.937.937 0 0 0-.793 1.061c.089.614.435 1.699 1.205 3.214 1.247 2.455 3.245 5.265 6.16 8.392a.937.937 0 0 0 1.371-1.278c-2.799-3.002-4.696-5.669-5.86-7.962a14.683 14.683 0 0 1-.789-1.817l-.113-.349-.062-.216-.05-.212-.008-.04a.937.937 0 0 0-.952-.803l-.11.01zM330.685 454.014c-1.836-.094-4.198.009-6.896.458-3.998.666-7.941 1.984-11.634 4.108-.655.377-1.297.777-1.928 1.2a.937.937 0 1 0 1.046 1.555c.594-.399 1.2-.776 1.816-1.13 3.487-2.006 7.22-3.253 11.008-3.885 2.395-.399 4.504-.508 6.166-.449l.432.02.268.02a.937.937 0 1 0 .18-1.866l-.335-.024-.123-.007z" fill="#444B75" fill-rule="nonzero"/>
            <path d="M287.954 472.371c-1.187 0-2.137 1.366-2.137 3.028s.95 3.028 2.137 3.028c1.188 0 2.137-1.366 2.137-3.028s-.95-3.028-2.137-3.028zM269.61 472.371c-1.186 0-2.136 1.366-2.136 3.028s.95 3.028 2.137 3.028 2.137-1.366 2.137-3.028-1.01-3.028-2.137-3.028z" fill="#425ABF"/>
            <path d="M269.11 474.395a.937.937 0 0 0-.384 1.268l.21.42.253.532.256.566.134.304.277.652.144.347c.973 2.374 1.947 5.199 2.858 8.464 1.252 4.489 2.28 9.45 3.008 14.875 1.053 7.767.5 15.305-1.355 24.16a1.85 1.85 0 0 0-1.041 1.656c0 .44.157.845.418 1.163a164.758 164.758 0 0 1-1.029 4.183.937.937 0 0 0 1.814.47l.404-1.586c.204-.82.4-1.628.586-2.425a1.85 1.85 0 0 0 1.487-1.805c0-.607-.3-1.15-.76-1.486 1.86-8.956 2.411-16.63 1.332-24.58-.738-5.51-1.784-10.557-3.06-15.128-.93-3.337-1.928-6.23-2.928-8.671l-.15-.36-.288-.679-.276-.62a38.974 38.974 0 0 0-.132-.289l-.27-.569-.24-.478a.937.937 0 0 0-1.269-.384z" fill="#FFF" fill-rule="nonzero"/>
            <path d="m287.736 474.31-.223.058-.275.082-.157.05-.347.118-.389.144a14.98 14.98 0 0 0-2.989 1.54c-5.585 3.758-6.502 9.999-.006 18.759l.235.314c6.822 9.055 9.071 18.762 7.318 27.046a1.845 1.845 0 0 0-1.049 1.657c0 .381.119.737.32 1.032a24.12 24.12 0 0 1-1.85 4.21.937.937 0 0 0 1.635.914 26.037 26.037 0 0 0 1.926-4.327 1.85 1.85 0 0 0 1.65-1.83c0-.604-.3-1.146-.756-1.482 1.757-8.639-.542-18.643-7.39-27.934l-.309-.415c-6.119-8.088-5.416-13.201-.678-16.389a13.13 13.13 0 0 1 3.274-1.58l.415-.124.082-.021a.937.937 0 0 0-.437-1.822z" fill="#FFF"/>
            <g>
                <path d="M269.077 443.105c1.721 1.603 3.858 2.671 6.114 3.146 2.256.475 4.571.416 6.768-.297 6.055-2.018 14.544-6.886 18.58-18.877 8.905 2.73 14.782-10.626 9.32-14.188-3.383-2.197-7.776.178-10.032 2.671-.119.119-.356.416-.415.534-.238-7.242 7.598-14.84 3.324-18.937-22.796-21.549-37.34-5.105-40.486-1.959-1.069 4.69-1.247 9.617-2.197 16.978-2.018 15.257 3.503 25.883 9.024 30.929zm30.75-27.545c.06-.119.06-.119 0 0z" fill="#E28F6B"/>
                <path d="M270.501 404.103c-.593-1.544-6.114-2.73-9.26.593M291.397 406.596c.179.713-3.383-5.877-13.297-3.443" stroke="#000" stroke-linecap="round" stroke-linejoin="round"/>
                <path d="M306.555 416.93a.468.468 0 0 0-.87.347l.053.147.031.098.07.24.037.14c.196.79.262 1.602.123 2.345-.295 1.567-1.445 2.573-3.842 2.802a.468.468 0 0 0 .09.932c2.803-.267 4.3-1.576 4.672-3.56.168-.895.092-1.836-.134-2.745a7.739 7.739 0 0 0-.124-.443l-.074-.219a3.144 3.144 0 0 0-.032-.084z" fill="#CF744D" fill-rule="nonzero"/>
                <path d="M308.904 414.977a.469.469 0 0 0-.56-.217l-.077.034-7.717 4.274a.468.468 0 0 0 .377.854l.077-.034 7.717-4.274a.468.468 0 0 0 .183-.637z" fill="#CF744D" fill-rule="nonzero"/>
                <path d="M284.511 408.02c-.89-.058-1.662 1.188-1.662 2.732 0 1.543.772 2.79 1.662 2.85.89.058 1.662-1.188 1.662-2.732 0-1.543-.771-2.85-1.662-2.85zM266.108 407.487c-.89-.06-1.662 1.187-1.662 2.73 0 1.544.772 2.79 1.662 2.85.89.06 1.663-1.187 1.663-2.73 0-1.544-.713-2.85-1.663-2.85z" fill="#000" fill-rule="nonzero"/>
                <path d="M272.223 428.442s6.174.95 9.914-3.265" stroke="#000" stroke-linecap="round" stroke-linejoin="round"/>
                <path d="M301.43 428.027c4.868 13.89-7.836 23.448-23.864 26.18-12.051 2.077-17.097-5.284-16.088-11.874-1.9-1.306-5.818-6.233-5.699-10.507.119-7.48 1.9-6.411 3.087-8.964-.89-4.512.119-6.352.89-8.667 0 1.721.475 7.955 1.544 11.1 0 0-1.069-8.785 7.598-5.46 1.663 3.442 7.362 3.977 9.38-.535 10.567-8.014 11.932 3.859 12.763 5.224 6.53-.653 7.896-15.435 7.896-15.435s2.612 3.384 2.85 1.128c-2.375 10.864-2.732 11.101-.357 17.81zm-26.773-2.078c-.831.178-1.603.297-2.315.415-3.087 1.128-8.49 3.68-2.078 6.471 6.708 1.425 15.197-.297 17.453-4.75.06 0-5.818-3.502-13.06-2.136z" fill="#543222"/>
                <path d="M256.907 398.107c.653 10.33 3.146 14.663 3.146 14.663l1.603-12.229c2.85 2.078 12.823-1.484 22.321-4.927 9.795-3.562 14.663-.534 14.188 11.516-.178 4.75-.712 10.983-.712 10.983 1.484-.653 2.434-5.046 8.489-5.877-2.256-7.48 10.388-26.417-2.553-25.824 2.612-16.68-18.106-7.005-18.106-7.005s-5.343-7.717-13.476-7.836c-7.598-.118-13.475 5.996-12.525 13.239-5.58-.238-9.974.89-2.375 13.297z" fill="#75452E"/>
                <path d="M272.342 408.615s.237 3.086-2.256 8.192c-2.256 4.63.83 6.945 5.996 5.461" stroke="#000" stroke-linecap="round" stroke-linejoin="round"/>
                <path d="M261.894 400.957c3.205 1.187 10.507-.594 22.083-5.403 9.617-3.977 14.663-.534 14.188 11.517-.119 2.79-1.128 11.339-1.128 12.17 1.722-1.366 3.977-6.293 8.845-7.065-2.256-7.48 10.389-26.417-2.552-25.823.356-2.256.415-3.562.178-5.402-.416-1.306-4.215-8.133-15.316 5.758-7.896 9.855-19.412 15.138-26.298 14.248zm-4.987-2.85c.653 10.33 3.146 14.663 3.146 14.663l.95-7.302v-4.511c-1.484-.713-2.909-1.544-4.274-3.265.06.118.119.237.178.415z" fill="#543222"/>
            </g>
        </g>
        <g fill-rule="nonzero">
            <path d="M396.365 557.824s.695-21.807-18.74-16.35c-14.938 4.198-5.405 17.619-5.405 17.619l4.157-.568s-7.203-12.517 3.296-14.505c13.7-2.589 13.764 14.208 13.764 14.208l2.928-.404z" fill="#A27C5D"/>
            <path d="M380.406 544.564s9.623.685 8.09 10.65c-1.534 9.966 6.598-.914 6.598-.914s1.148-15.178-14.688-9.736z" fill="#A27C5D"/>
            <path d="M396.969 554.041s-1.104-15.203-14.712-12.311c-13.608 2.892-7.728 15.419-7.728 15.419l3.738-.518s-3.84-10.678 5.647-12.216c9.487-1.538 9.531 10.114 9.531 10.114l3.524-.488zM358.22 562.845s-14.193-3.41-22.708 10.101c-8.515 13.51 21.136 0 21.136 0l1.571-10.1z" fill="#FFD7AC"/>
            <path d="M349.266 569.727s-17.329-.199-19.819 26.89c-2.49 27.09-13.489 26.52-8.493 39.02 4.995 12.501 7.17 16.668 21.984 23.865 14.813 7.196 2.165-15.152 2.165-15.152s-10.158-2.652-12.99-10.418c-2.833-7.766 4.995-11.93 7.16-25.189 2.165-13.257 8.166-22.35 8.166-22.35l1.827-16.666z" fill="#A27C5D"/>
            <path d="M353.216 568.779s-6.33-1.705-10.993 0-11.991 5.88-13.324 24.434c-1.332 18.554-13.823 28.599-12.156 39.773 1.667 11.174 6.66 23.864 26.812 30.674 20.152 6.81.996-5.302.996-5.302s-19.486-6.44-21.484-19.32c-1.998-12.882 7.165-26.506 7.998-32.946.832-6.44 1.832-30.495 10.325-32.387 8.493-1.892 11.826.757 11.826.757v-5.683z" fill="#FDC89C"/>
            <path d="M365.754 556.878a18.672 18.672 0 0 0-6.14 2.876c-6.561 4.72-18.666 17.875-14.726 49.242 2.998 23.865.665 30.113-2.83 44.508-3.496 14.395-.16 22.54 8.08 26.707 8.24 4.167 22.062 4.924 24.395-7.952l38.442-114.776s-10.674-10.252-47.22-.605z" fill="#D4A37B"/>
            <path d="M377.596 575.057c-1.759 5.022-5.272 12.854-6.593 22.72-.615 4.598-1.165 10.86.506 38.97 1.287 21.647 2.59 34.41-5.83 44.633a28.802 28.802 0 0 1-1.36 1.538c8.072.24 20.02 2.472 34.002 0 23.914-4.23 38.3-3.472 42.596-7.828 4.296-4.356 10.088-16.857 5.045-32.577-5.043-15.72-12.871-29.694-11.752-40.49 1.12-10.796-4.195-12.35-8.493-18.986-4.298-6.637-48.121-7.98-48.121-7.98z" fill="#FDC89C"/>
            <path d="M441.257 630.17c-1.768.755-36.2 14.889-58.253-3.701-3.223-2.717-7.276-7.053-10.497-13.865-4.727-20.879 1.785-40.91 15.988-50.13 1.98-1.284 13.386-8.688 27.667-4.815a31.828 31.828 0 0 1 7.768 3.258c8.097 4.733 13.499 13.001 14.814 22.287.332 2.348.647 4.581.9 6.677.633 5.23.458 9.162.472 10.923.054 5.965.289 15.253 1.141 29.366z" fill="#FFD7AC"/>
            <path d="M402.853 561.62c-7.812 3.633-12.698 9.525-12.607 24.04.046 7.2 6.253 19.833 21.474 20.606 15.222.772 21.99-11.091 23.145-19.04 1.156-7.95-8.076-36.738-32.012-25.606z" fill="#FFD7AC"/>
            <path d="M404.43 590.701c-1.986-9.823-.104-16.27-.104-16.27s-.503 3.925 3.456 10.25c-.05 7.84 1.493 11.93 1.493 11.93l.317-.233-.317.277s-2.348-1.916-4.844-5.954zM413.788 589.31c.95.957 1.836 1.62 2.476 1.934a1.427 1.427 0 0 1-.011-.005s.719.257.846.086c.876-.928 1.09-2.658.506-5.908-3.341-1.908-3.763-4.882-3.763-4.882s-.602 4.13-.054 8.775z" fill="#FCFCFE" opacity=".5"/>
            <path d="M404.326 574.431s-2.749 9.414 1.904 22.825a.967.967 0 0 1-.339 1.075l-4.906 3.439c-.465.344-1.142.129-1.353-.43-1.311-3.568-4.906-15.389-1.269-28.327.17-.516.72-.817 1.227-.602l4.736 2.02zM413.715 593.345l-4.44 3.267s-2.369-6.276-1.142-18.183c.084-.688.803-1.032 1.395-.688l4.314 2.794s-.846 5.803.38 11.391c.128.56-.084 1.118-.507 1.419zM421.92 586.08l-4.103-2.708c-.253-.172-.634.086-.55.387.973 4.342.847 6.49-.168 7.566-.127.171-.846-.086-.846-.086.676.343.846.171.846.171.676-.515 3.214-2.364 4.82-3.481.635-.473.635-1.419 0-1.849z" fill="#FFF"/>
            <path d="M447.01 658.35c-.737 2.749-2.884 7.141-20.389 7.245-17.504.103-37.247 9.907-42.183.121s-.661-22.368-1.468-33.03c-.807-10.663.472-16.951 2.789-18.481 2.316-1.53 61.25 44.145 61.25 44.145z" fill="#A27C5D"/>
            <path d="M389.356 611.289c-2.106 1.376-6.077-1.858-4.456 17.913 1.594 19.32.128 29.132.715 31.102.588 1.97 2.872 4.6 7.127 4.64 4.255.04 7.244-3.969 5.334-13.213-1.91-9.244-.243-35.49-.243-35.49l-8.477-4.952z" fill="#D4A37B"/>
            <path d="M385.8 613.223c.502-.974 1.048-2.36 8.95-2.573 6.995-.188 15.51-.453 21.91-1.604s16.973-3.452 19.07-3.151c2.097.3 11.598 3.906 9.636 4.798-1.961.893-14.648 4.382-25.023 5.432-10.376 1.05-23.155-.289-25.605 1.793-2.299 1.94-10.165-2.317-8.938-4.695z" fill="#FFEDDA"/>
            <path d="M394.045 617.958s-2.84 1.111-.895 19.89c1.946 18.78-1.121 26.275.942 26.956 2.064.681 7.88 1.434 16.108-1.058 8.229-2.492 28.004-2.828 31.764-3.239 3.761-.41 10.627-3.569 7.386-16.444-3.24-12.876-2.428-32.513-3.846-34.02-1.418-1.509-15.977 4.584-26.334 5.449-9.864.834-23.438.378-25.125 2.466z" fill="#FDC89C"/>
            <path d="M397.728 616.667s3.145 18.263 12.214 21.532c9.068 3.268 21.814 3.952 28.38 1.593 6.564-2.358 8.393-8.485 8.538-13.244.15-4.868-.458-6.453-.229-10.712.23-4.258.2-9.063-8.238-5.414-8.437 3.65-34.72 5.53-40.665 6.245z" fill="#FFD7AC"/>
            <path d="M392.577 630.602s32.967 5.444 54.054-6.45c0 0-21.812 7.143-54.054 6.45z" fill="#A27C5D"/>
            <path d="M396.234 647.162c-.14 5.215-.984 14.77 8.7 14.112 9.684-.657 14.156-5.137 21.635-4.467 7.48.669-3.09-5.956-16.616-4.201-13.524 1.755-13.47-14.834-13.72-5.444z" fill="#FFD7AC"/>
            <path d="M406.79 633.912c-2.928-1.43 10.266-.597 13.943-.956 3.677-.358 11.354-1.567 14.877-3.493 1.51.796-5.559 5.435-14.76 6.174-9.2.74-11.41-.426-14.06-1.725z" fill="#FFEDDA"/>
            <path d="M370.585 615.145s-11.125-2.342-25.113-1.016c0 0 18.942 1.685 25.113 1.016z" fill="#A27C5D"/>
            <path d="M348.635 616.565c-1.1-.796 8.453 2.456 15.514 1.183 5.436-.98-7.5 4.59-15.514-1.183z" fill="#FFD7AC"/>
            <path d="M395.19 631.596c-.261.679-3.223 6.51-3.223 6.51l-1.679-.644-1.558-.598s1.604-6.374 1.859-7.033a2.462 2.462 0 1 1 4.595 1.767l.006-.002z" fill="#667DFF"/>
            <path d="M394.282 630.982a1.448 1.448 0 1 1-2.896 0 1.448 1.448 0 0 1 2.896 0z" fill="#1E223F"/>
            <path d="M406.982 559.895c-.261.678-3.221 6.51-3.221 6.51l-1.673-.644-1.558-.597s1.594-6.374 1.856-7.035a2.462 2.462 0 0 1 4.596 1.768v-.002z" fill="#667DFF"/>
            <path d="M406.073 559.282a1.448 1.448 0 1 1-2.896-.004 1.448 1.448 0 0 1 2.896.004z" fill="#1E223F"/>
            <path d="M408.812 556.848c.399.611 3.33 6.453 3.33 6.453l-1.51.967-1.406.898s-4.182-5.07-4.563-5.667a2.462 2.462 0 1 1 4.15-2.651z" fill="#667DFF"/>
            <path d="M407.778 557.214a1.448 1.448 0 1 1-1.709 2.338 1.448 1.448 0 0 1 1.71-2.338z" fill="#1E223F"/>
            <path d="M379.701 575.143c-2.292 4.127-6.527 17.243-5.527 25.012 1 7.768.996 1.95 4.828-9.709 3.833-11.658 8.517-29.381.7-15.303z" fill="#FFEDDA"/>
            <path d="M418.64 674.223c-5.695.797-14.57 2.665-18.11 4.498-3.54 1.832 3.538 1.832 15.154 0 11.616-1.833 18.652-1.333 20.13-2.498 1.478-1.165 6.808-5.33-17.174-2z" fill="#FFD7AC"/>
            <path d="M344.346 662.067c.783 3.924.399 10.967 9.2 15.226 8.802 4.258-7.009-12.063-4.599-26.219s1.946-16.532 1.345-20.092c-.602-3.56-7.545 23.054-5.946 31.085zM385.11 556.932c-6.136 2.485-12.29 9.706-14.531 19.532-2.241 9.825 3.822-5.964 9.116-10.06 5.295-4.094 11.553-10.781 18.965-10.691 7.411.09-.448-4.084-13.55 1.219z" fill="#A27C5D"/>
        </g>
        <path d="M290.277 647.086c133.096 0 240.992-107.709 240.992-240.575 0-132.866-107.896-240.575-240.992-240.575-133.097 0-240.993 107.71-240.993 240.575 0 132.866 107.896 240.575 240.993 240.575z" stroke="url(#stplok5tol)" stroke-width="6" stroke-linecap="round" stroke-linejoin="round" stroke-dasharray="0,33" transform="translate(0 .852)"/>
        <g fill-rule="nonzero">
            <path fill="url(#mju7ag7j6m)" d="m398.264 33.239 26.193 20-55.382-4.179-26.188-20.006z" transform="translate(0 108.733)"/>
            <path fill="url(#gtmqw1yo2n)" d="m424.457 53.24-13.226 61.227-55.377-4.185 13.22-61.222z" transform="translate(0 108.733)"/>
            <path fill="url(#oo67k78mqo)" d="m369.075 49.06-13.22 61.222L329.66 90.28l13.226-61.227z" transform="translate(0 108.733)"/>
            <path d="M398.264 33.239s-1.648 7.298-3.98 17.723l30.173 2.278-26.193-20.001z" fill="url(#tc5smkkhtp)" transform="translate(0 108.733)"/>
            <path d="m398.264 33.239-55.377-4.18 26.188 20.013 55.382 4.18-26.193-20.013zm-53.622-3.532 53.422 4.038 24.633 18.835-53.422-4.038-24.633-18.835z" fill="url(#xobhslnf9q)" transform="translate(0 108.733)"/>
            <path fill="#91E5B3" d="m336.536 204.264 10.166 7.764 13.196-61.245-10.165-7.763z"/>
            <path fill="#73E0AA" d="m400.33 136.003 27.652 20.86-58.225-4.055-27.646-20.854z"/>
            <path fill="url(#66ui5ojmkr)" d="m427.982 48.13-2.837 13.403-58.219-4.05 2.831-13.408z" transform="translate(0 108.733)"/>
            <path fill="url(#9n54qfnvbs)" d="m369.757 44.075-2.83 13.408-27.654-20.86 2.838-13.402z" transform="translate(0 108.733)"/>
            <path fill="#9FEDBF" d="m347.137 151.29 9.995 7.534 2.807-13.42-9.988-7.54z"/>
            <path fill="#AEF4CA" d="m406.634 140.76-56.683-2.897 3.314 2.502 6.674 5.038 56.701 2.902z"/>
            <path fill="#000" opacity=".2" d="m367.262 166.317-.695 2.99-26.193-20.001.618-2.614z"/>
            <path d="m422.714 170.143-.641 2.89-55.506-3.726.695-2.99z" opacity=".03" fill="#000"/>
            <path d="m414.674 178.471-28.748 36.853-13.332-39.307 8.312.483 8.081 23.703 17.27-22.22z" opacity=".1" fill="#FFF"/>
            <path d="m406.257 177.983-17.27 22.22-8.081-23.703 7.781.459 3.16 9.117 6.629-8.546z" opacity=".2" fill="#FFF"/>
            <path fill="url(#hs5b50z0st)" d="m159.466 30.678-28.354 30.425 68.014-16.922 28.353-30.425z" transform="translate(0 108.733)"/>
            <path fill="url(#gh6w5apyiu)" d="m131.112 61.103 29.413 73.376 68.008-16.922-29.407-73.376z" transform="translate(0 108.733)"/>
            <path fill="url(#flj2vtf42v)" d="m199.126 44.18 29.407 73.377 28.353-30.431-29.407-73.37z" transform="translate(0 108.733)"/>
            <path d="M159.466 30.678s3.578 8.759 8.7 21.208l-37.054 9.217 28.354-30.425z" fill="url(#kygvc8ay1w)" transform="translate(0 108.733)"/>
            <path d="m131.112 61.103 68.014-16.922 28.353-30.425-68.013 16.922-28.354 30.425zm67.655-17.546L133.16 59.903l26.664-28.619 65.612-16.327-26.67 28.6z" fill="url(#ons5k8wm2x)" transform="translate(0 108.733)"/>
            <path fill="url(#ag85tu4zfy)" d="m249.446 95.113-11.001 11.808-29.383-73.4 11-11.813z" transform="translate(0 108.733)"/>
            <path d="M254.902 138.475c1.725-1.088 2.143-3.684 2.832-7.981l-3.344 1.884c-.67 4.179-1.112 6.94-2.83 7.981 1.112-.624 2.242-1.224 3.342-1.884" fill="#2FB2E0"/>
            <path d="M242.424 136.003c1.348-.665 2.996-.123 6.416 1.43 2.23 1.013 4.338 1.972 6.062 1.042l-3.343 1.884c-1.795.9-3.796 0-5.915-.971-3.15-1.43-5.168-2.249-6.57-1.501 1.12-.624 2.22-1.283 3.35-1.884" fill="#47D0F4"/>
            <path d="M240.74 139.205c.377-1.124 1.03-2.79 1.702-3.202l-3.35 1.884c-1.03.66-1.618 1.883-2.024 4.22 0 0-1.142 6.958-2.861 8 1.112-.63 2.243-1.23 3.343-1.884 1.407-.889 2.42-5.633 2.75-7.34.105-.57.253-1.13.44-1.678zM223.023 150.012c.412-2.39 1.001-3.626 2.031-4.261l-3.343 1.883c-1.042.66-1.637 1.896-2.037 4.268l3.35-1.89" fill="#2FB2E0"/>
            <path d="M225.054 145.75c1.348-.67 2.996-.129 6.416 1.431 2.23 1.012 4.338 1.966 6.063 1.042l-3.344 1.883c-1.795.901-3.796 0-5.915-.97-3.15-1.437-5.162-2.25-6.563-1.502 1.112-.63 2.213-1.289 3.343-1.883" fill="#47D0F4"/>
            <path d="M137.734 198.343c1.342-.671 3.338-1.566 3.844-1.219l-2.302-1.913c-.8-.523-2.272 0-5.062 1.843 0 0-8.31 5.515-9.576 4.603.765.635 1.5 1.318 2.301 1.913 1.077.712 6.751-2.785 8.794-4.085a21.46 21.46 0 0 1 2.001-1.142zM151.19 205.147c-.807-.524-2.284 0-5.11 1.878 0 0-8.287 5.533-9.558 4.614.765.642 1.5 1.325 2.301 1.92 1.224.806 3.961-.895 8.417-3.856a24.604 24.604 0 0 1 3.597-1.99c1.124-.494 2.29-.9 2.654-.647l-2.301-1.919z" fill="#2FB2E0"/>
            <path d="M151.896 215.671c1.795-5.362 2.413-7.746 1.595-8.605-.73-.689-1.536-1.277-2.301-1.919.912.842 0 3.903-1.678 8.83-1.112 3.319-2.16 6.474-1.06 7.592l2.302 1.913c-1.136-1.018-.03-4.32 1.142-7.81zM139.965 205.73c1.766-5.362 2.413-7.74 1.595-8.606-.73-.682-1.536-1.277-2.301-1.913.912.842 0 3.897-1.678 8.83-1.112 3.325-2.16 6.474-1.06 7.593l2.302 1.918c-1.136-1.03-.03-4.326 1.142-7.822zM124.543 189.02c2.855-1.867 4.333-2.414 5.115-1.878l-2.307-1.89c-.8-.524-2.284 0-5.115 1.884l2.307 1.913" fill="#47D0F4"/>
            <path d="M128.063 195.741c1.796-5.356 2.414-7.74 1.595-8.6-.753-.712-1.536-1.3-2.307-1.889.918.842 0 3.903-1.672 8.83-1.112 3.319-2.16 6.474-1.059 7.592l2.301 1.913c-1.136-1.047-.029-4.35 1.142-7.846z" fill="#47D0F4"/>
            <path d="M243.33 122.86c.265 1.483.589 3.65.089 4.038l2.484-1.684c.724-.588.624-2.178-.348-5.368 0 0-2.943-9.53-1.724-10.489-.83.589-1.69 1.071-2.484 1.672-.99.836.77 7.257 1.454 9.588.217.754.394 1.501.53 2.243zM255.974 112.853c.994 3.261 1.1 4.839.37 5.433l2.484-1.671c.73-.624.624-2.202-.365-5.433l-2.49 1.671" fill="#2FB2E0"/>
            <path d="M248.534 114.319c4.644 3.231 6.751 4.497 7.81 3.95.866-.507 1.66-1.113 2.484-1.672-1.065.647-3.737-1.113-8.01-4.09-2.873-1.996-5.586-3.886-6.987-3.15l-2.502 1.672c1.324-.8 4.185 1.189 7.205 3.29z" fill="#47D0F4"/>
            <path fill="#2FB2E0" d="m115.338 174.887-4.633 5.533-5.839 1.554 7.876-8.935z"/>
            <path d="m143.926 183.269 47.142 41.808 8.046-55.376-10.907 2.678-4.903 33.404-28.335-25.228z" opacity=".1" fill="#FFF"/>
            <path d="m154.969 180.555 28.335 25.228 4.903-33.404-10.2 2.508-1.954 12.86-10.884-9.705z" opacity=".2" fill="#FFF"/>
            <path fill="url(#q6vf3jchnz)" d="m518.234 130.424-28.583-8.135 32.897 37.753 28.583 8.135z" transform="translate(0 108.733)"/>
            <path fill="url(#nfox477guA)" d="m489.65 122.29-37.1 42.585 32.898 37.753 37.1-42.586z" transform="translate(0 108.733)"/>
            <path fill="url(#a7pzz4mflB)" d="m522.548 160.042-37.1 42.586 28.583 8.135 37.1-42.586z" transform="translate(0 108.733)"/>
            <path d="M518.234 130.424s-4.38 5.126-10.66 12.437l-17.923-20.566 28.583 8.129z" fill="url(#v9p8wnxg9C)" transform="translate(0 108.733)"/>
            <path d="m489.65 122.295 32.898 37.753 28.583 8.129-32.897-37.753-28.583-8.129zm33.169 37.324L491.087 123.2l26.876 7.652 31.738 36.418-26.882-7.652z" fill="url(#4nnx81umkD)" transform="translate(0 108.733)"/>
            <path fill="#F998CD" d="m506.532 317.36-11.095-3.156 37.13-42.574 11.089 3.155zM523.602 231.805l-29.666-8.276 34.304 38.948 29.666 8.27z"/>
            <path fill="url(#pdkan2jz1E)" d="m493.936 114.796-7.94 9.247 34.304 38.942 7.94-9.24z" transform="translate(0 108.733)"/>
            <path fill="url(#eg49287y2F)" d="m528.24 153.744-7.94 9.241 29.666 8.27 7.94-9.24z" transform="translate(0 108.733)"/>
            <path fill="#FCA2D7" d="m541.525 277.634-10.719-2.984 7.97-9.235 10.719 2.99z"/>
            <path fill="#FFB3E4" d="m516.839 229.916 32.656 38.489-3.561-.995-7.158-1.995-32.668-38.49z"/>
            <path d="m484.948 242.388-11.125 43.469 37.689-12.944-5.25-6.027-22.75 7.77 6.751-26.164z" opacity=".1" fill="#FFF"/>
            <path d="m490.263 248.492-6.751 26.164 22.75-7.77-4.91-5.645-8.782 2.95 2.602-10.054z" opacity=".2" fill="#FFF"/>
            <path fill="#000" opacity=".2" d="m520.035 271.707-1.76 2.142 28.718 7.758 1.53-1.883z"/>
            <path d="m486.802 234.1-1.713 2.049 33.186 37.7 1.76-2.142z" opacity=".03" fill="#000"/>
            <path fill="url(#hthjtclc4G)" d="m42.009 138.529 32.138-7.322-38.666 39.866-32.132 7.322z" transform="translate(0 108.733)"/>
            <path fill="url(#ucw19qomyH)" d="m74.147 131.207 38.571 49.354-38.665 39.867-38.572-49.355z" transform="translate(0 108.733)"/>
            <path fill="url(#ssp5ng909I)" d="m35.481 171.073 38.572 49.355-32.132 7.316-38.572-49.349z" transform="translate(0 108.733)"/>
            <path d="M42.009 138.529s4.556 5.933 11.072 14.397l21.084-21.72-32.156 7.323z" fill="url(#sb1zy30yhJ)" transform="translate(0 108.733)"/>
            <path d="m42.009 138.529-38.66 39.866 32.132-7.322 38.684-39.866-32.156 7.322zM4.99 177.47l37.295-38.454 30.219-6.886-37.294 38.46-30.22 6.88z" fill="url(#o1pbyk5zwK)" transform="translate(0 108.733)"/>
            <path fill="#FFD297" d="m50.355 334.558 12.473-2.843-38.6-49.343-12.474 2.843z"/>
            <path fill="#F9C985" d="m40.202 244.136 33.492-7.757-40.179 41.738-33.491 7.758z"/>
            <path fill="url(#m9038ty3eL)" d="m73.694 127.645 8.4 10.695-40.18 41.739-8.399-10.695z" transform="translate(0 108.733)"/>
            <path fill="url(#p8avsnwjcM)" d="m33.515 169.384 8.4 10.695-33.492 7.763-8.4-10.7z" transform="translate(0 108.733)"/>
            <path fill="#FFD6A4" d="m17.953 294.368 12.095-2.807-8.428-10.69-12.096 2.802z"/>
            <path fill="#FFE1C0" d="M47.836 242.37 9.524 283.674l4.014-.93 8.082-1.872 38.336-41.308z"/>
            <path d="m81.293 258.169 9.482 45.77-38.595-15.286 5.757-6.022 23.29 9.183-5.756-27.547z" opacity=".1" fill="#FFF"/>
            <path d="m75.471 264.267 5.757 27.547-23.291-9.183 5.38-5.633 8.993 3.49-2.224-10.582z" opacity=".2" fill="#FFF"/>
            <g opacity=".7" fill="#000">
                <path opacity=".2" d="m42.415 288.806 1.854 2.448-32.132 7.323-1.607-2.149z"/>
            </g>
            <path d="m80.857 248.651 1.807 2.343-38.395 40.26-1.854-2.448z" opacity=".07" fill="#000"/>
        </g>
        <g>
            <path fill="url(#ne583giv5N)" opacity=".099" d="m222.088 122.837-26.67 28.6-65.606 16.346L39.03 69.58 226.273 0z" transform="translate(3.35 .852)"/>
            <path fill="url(#3gty2wu4tO)" opacity=".099" d="m221.995 122.648-26.67 28.6-65.606 16.347L0 89.795 269.36 0z" transform="translate(3.35 .852)"/>
            <path fill="url(#u7ox6wxaoP)" opacity=".329" d="m221.933 123.036-26.67 28.6-65.606 16.346-26.1-35.504 114.805-45.644z" transform="translate(3.35 .852)"/>
            <path fill="url(#uchvr4nsrQ)" opacity=".329" d="m221.948 123.2-26.67 28.6-65.606 16.345-58.857-45.687 164.91-60.078z" transform="translate(3.35 .852)"/>
        </g>
        <g>
            <path d="M15.063 0h.051c.976.113 3.03 4.07 2.872 8.093 0 .298-.038.592-.075.89-.12.982-.31 1.954-.565 2.91a10.071 10.071 0 0 0-5.501-1.671c-.691 0-1.38.075-2.054.223.019-.795.083-1.589.191-2.376.045-.351.11-.7.192-1.044C11.074 3.218 14.036 0 15.063 0z" fill="url(#fcba7ss93R)" fill-rule="nonzero" transform="rotate(21 -126.957 557.735)"/>
            <path d="m190.785 96.671-1.536 4.001a13.21 13.21 0 0 1 .844-6.02l1.537-4.004a13.214 13.214 0 0 0-.845 6.023" fill="#357239" fill-rule="nonzero"/>
            <path d="M4.546 4.45c1.342 0 3.766.846 5.618 2.592a9.822 9.822 0 0 0-.192 1.044c-.108.788-.172 1.58-.192 2.376a10.893 10.893 0 0 0-5.33 2.964c-1.773-3.358-1.554-8.072-.767-8.774.256-.164.561-.235.863-.202z" fill="url(#rey8y5goxS)" fill-rule="nonzero" transform="rotate(21 -126.957 557.735)"/>
            <path d="M204.927 108.95a7.63 7.63 0 0 1-.748.325l-.104.04 1.536-4 .104-.042a8.33 8.33 0 0 0 .748-.325c1-.503 1.924-1.14 2.749-1.897 1.516-1.372 2.628-2.958 3.018-3.975l-1.537 4.005c-.39 1.016-1.502 2.603-3.019 3.975l.002-.003a12.146 12.146 0 0 1-2.743 1.88l-.006.016z" fill="#357239"/>
            <path d="M23.135 6.645c1.027 0 1.81.212 2.054.547.63.932-.637 6.18-3.704 8.901l-.082.075a13.09 13.09 0 0 0-4.057-4.275c.256-.956.445-1.928.565-2.91.037-.298.061-.592.075-.89a10.441 10.441 0 0 1 5.149-1.448z" fill="url(#jrzpyt312T)" fill-rule="nonzero" transform="rotate(21 -126.957 557.735)"/>
            <path d="m201.06 121.488.211-.234.168-.2c.069-.083.136-.171.203-.26.066-.087.109-.14.163-.215.054-.075.132-.192.2-.29a5.08 5.08 0 0 0 .15-.232c.05-.08.13-.21.194-.322.065-.11.097-.157.143-.238.046-.082.129-.24.19-.363.062-.123.088-.161.127-.245.056-.144.136-.286.203-.432l.086-.224.271-.706 1.535-3.998-.271.706-.086.224c-.058.15-.135.293-.203.432-.033.086-.084.162-.127.244a27.88 27.88 0 0 1-.19.364c-.064.118-.095.161-.143.238-.048.077-.128.219-.194.322-.065.103-.103.155-.15.232l-.2.29a5.768 5.768 0 0 1-.164.216c-.056.07-.133.176-.202.26l-.168.199-.211.234a4.753 4.753 0 0 1-.176.182c-.06.058-.143.143-.217.21-.073.067-.125.117-.186.17l-.206.174c-.064.053-.132.104-.199.155a7.83 7.83 0 0 1-.21.154l-.204.142-.216.133a4.123 4.123 0 0 1-.434.24c-.076.038-.142.075-.214.11l-.23.102-.22.087-.236.09-.222.072-.244.071-.228.06-.249.055-.237.044c-.072.016-.145.025-.22.037l-.254.034-.226.023-.258.023-.226.008-.263.005-.235.002-.265-.007-.235-.01-.272-.016-.238-.021c-.093-.006-.186-.02-.278-.03l-.241-.03-.278-.04-.246-.04-.288-.06-.242-.048-.29-.064-.244-.053-.298-.075-.24-.062c-.1-.038-.206-.057-.309-.086l-.238-.066-.328-.1-.227-.087-.32-.123-.217-.083-.361-.139-.189-.072-.556-.214c-6.134-2.274-10.45-5.826-7.581-13.302l-1.541 4.014c-2.87 7.476 1.448 11.025 7.555 13.37l.556.213.189.073.361.138.217.084.32.122.227.087.328.1.239.067.308.085.24.063.298.074.242.056.292.06.242.05.285.05c.077.03.162.026.245.04.083.013.186.03.278.04l.241.03.277.033.239.019.271.02.235.009.266.003.234.002.264-.009.228-.011.258-.022c.076-.008.151-.012.225-.024.074-.012.17-.023.255-.034l.219-.033.089-.014.149-.034.248-.055.228-.06.244-.07.222-.073.236-.09.22-.087.23-.102c.033-.017.066-.027.098-.044l.117-.065a4.386 4.386 0 0 0 .433-.24l.216-.134c.07-.047.138-.09.205-.141.067-.052.141-.1.21-.155.068-.054.133-.099.198-.154.066-.056.135-.114.205-.171.031-.03.064-.057.098-.083l.089-.088a6.83 6.83 0 0 0 .217-.213c.073-.075.141-.195.211-.253z" fill="#A17C1D" fill-rule="nonzero"/>
            <path d="M21.389 16.182a13.09 13.09 0 0 0-4.043-4.29 10.071 10.071 0 0 0-5.501-1.67c-.691 0-1.38.075-2.054.223a10.893 10.893 0 0 0-5.34 2.981C1.735 16.09 0 20.218 0 24.8c0 8.007 5.303 9.777 11.845 9.777 6.542 0 11.844-1.763 11.844-9.77a16.836 16.836 0 0 0-2.3-8.624z" fill="url(#gqjglfpy2U)" fill-rule="nonzero" transform="rotate(21 -126.957 557.735)"/>
            <path d="m192.083 104.257-.012.032a1.39 1.39 0 0 1-1.786.782l-.048-.019a1.493 1.493 0 0 1-.472-.287l-.13-.13a1.37 1.37 0 0 1-.32-1.077c.011-.078.03-.154.055-.228l.012-.032a1.393 1.393 0 0 1 1.785-.782l.077.03a1.397 1.397 0 0 1 .839 1.711zm-1.917-.394a.514.514 0 0 0 .352-.965l-.019-.008a.517.517 0 0 0-.675.298.53.53 0 0 0 .331.656l.016.006" fill="#000" fill-rule="nonzero"/>
            <path d="M190.516 102.904a.514.514 0 1 1-.352.965l-.016-.006a.53.53 0 0 1-.324-.675.517.517 0 0 1 .676-.3l.016.016zM199.813 106.902a.514.514 0 1 1-.352.965l-.016-.006a.514.514 0 1 1 .349-.966l.02.007z" fill="#EAEAEA" fill-rule="nonzero"/>
            <path d="m201.375 108.25-.012.032a1.393 1.393 0 0 1-1.785.781l-.15-.058a1.37 1.37 0 0 1-.748-1.72 1.39 1.39 0 0 1 1.769-.788l.048.018c.108.042.21.096.305.161.472.292.726.836.645 1.385-.019.065-.043.128-.072.189zm-1.92-.396a.514.514 0 1 0 .352-.965l-.019-.008a.514.514 0 0 0-.349.966l.016.007" fill="#000" fill-rule="nonzero"/>
            <path d="M201.825 108.404a1.766 1.766 0 0 1-1.448 1.156 1.972 1.972 0 0 1-.93-.092l-.101-.04a1.784 1.784 0 1 1 1.257-3.334l.061.024a1.859 1.859 0 0 1 1.161 2.286zm-2.227.652a1.393 1.393 0 0 0 1.786-.781l.012-.032c.022-.064.038-.13.05-.197a1.386 1.386 0 0 0-.623-1.369 1.434 1.434 0 0 0-.305-.16l-.047-.019a1.39 1.39 0 0 0-1.782.82 1.37 1.37 0 0 0 .773 1.682l.138.053" fill="#EAEAEA" fill-rule="nonzero"/>
            <path d="M193.158 106.386a.4.4 0 0 1 .243.266c.132.441.452.803.874.988.078.035.158.066.24.092.402.158.845.174 1.258.047a.414.414 0 0 1 .258.014c.111.04.199.128.239.239a.342.342 0 0 1-.234.475 2.701 2.701 0 0 1-1.775-.077 2.971 2.971 0 0 1-.312-.141 2.335 2.335 0 0 1-1.294-1.491.342.342 0 0 1 .276-.433.414.414 0 0 1 .227.021z" fill="#000" fill-rule="nonzero"/>
            <path d="M200.636 109.649c.959.368 1.583 1.044 1.403 1.514-.18.47-1.101.556-2.057.19-.955-.367-1.594-1.053-1.419-1.51.092-.24.38-.378.765-.406l.109.041c.297.105.616.137.928.093.097.015.185.045.271.078z" fill="#D69EBB" fill-rule="nonzero"/>
            <path fill="#ECB732" fill-rule="nonzero" d="m202.142 113.93.337.68-3.314 1.412.731 1.63-.709.27-.723-1.6-3.366 1.432-.34-.681 3.395-1.443-1.086-2.405.712-.269 1.072 2.374z"/>
            <path fill="#FFC73A" fill-rule="nonzero" d="m200.51 100.074.334.685-2.552 1.06.729 1.53-.703.284-.732-1.524-1.556.645-.336-.682 1.569-.648-1.188-2.495.704-.287 1.183 2.489z"/>
            <path d="M192.52 104.41a1.797 1.797 0 0 1-1.999 1.155 1.989 1.989 0 0 1-.372-.092l-.067-.026a1.938 1.938 0 0 1-1.133-1.127 1.712 1.712 0 0 1-.02-1.149 1.828 1.828 0 0 1 2.372-1.062l.067.026a1.849 1.849 0 0 1 1.151 2.275zm-2.23.651a1.39 1.39 0 0 0 1.784-.781l.012-.032a1.397 1.397 0 0 0-.844-1.718l-.076-.03a1.393 1.393 0 0 0-1.785.782l-.013.032c-.025.075-.043.151-.054.229-.052.388.064.78.32 1.076l.13.13c.138.125.298.222.472.288l.048.019" fill="#EAEAEA" fill-rule="nonzero"/>
            <path d="M190.521 105.565a.644.644 0 0 1-.006.532c-.198.39-.886.445-1.583.178a3.081 3.081 0 0 1-.312-.142c-.817-.424-1.287-1.128-1.044-1.57.186-.35.763-.44 1.392-.244.196.525.61.939 1.133 1.136l.067.026c.115.038.233.066.353.084z" fill="#D69EBB" fill-rule="nonzero"/>
            <path fill="#ECB732" fill-rule="nonzero" d="m186.153 107.793 1.506 3.24 2.389-1.045.349.677-2.417 1.06 1.555 3.343-.711.277-1.54-3.315-1.606.707-.35-.677 1.638-.72-1.521-3.269z"/>
        </g>
        <g fill-rule="nonzero">
            <path fill="url(#10djdahvbV)" d="M30.042 0 19.059 14.581 7.987 0h6.77l4.302 5.61L23.27 0z" transform="rotate(-24 256.289 -239.455)"/>
            <path fill="url(#xoviti524W)" d="M37.363 0 19.06 24.187.755 0h7.232l11.072 14.581L30.042 0z" transform="rotate(-24 256.289 -239.455)"/>
            <path fill="#3AB67F" d="m155.53 72.487-6.884 29.54-1.844-4.143 6.884-29.54z"/>
            <path fill="#29875D" d="m148.646 102.027-26.559-14.65-1.845-4.144 26.56 14.65z"/>
        </g>
        <g fill-rule="nonzero">
            <path d="M15.574 12.274c.32 0 .639 0 .949.016.195 1.373 1.447 2.443 2.96 2.443a3.096 3.096 0 0 0 1.702-.503c.25.48.381 1.013.38 1.554a3.07 3.07 0 0 1-.054.542 3.312 3.312 0 0 1-1.72 2.29c-.857.464-1.883.605-2.97.75-.58.08-1.183.163-1.77.3-1.555.358-3.06 1.06-4.514 1.74l-.535.249-.195.09-.199.09c-1.528.695-2.948 1.26-4.3 1.293h-.116a4.378 4.378 0 0 1-2.156-.552l-.116-.067-.185-.113c-1.248-.813-1.559-2.124-1.559-3.224.001-.388.036-.776.105-1.158.187-1.06.694-2.04 1.185-2.987l.248-.484c.248.093.507.155.771.183-.1.307-.15.629-.148.952 0 1.243.769 2.44 2.084 3.075l.232.109.231-.081a10.305 10.305 0 0 0 3.569-2.084 10.71 10.71 0 0 0 1.765-2.008c.148.02.299.03.449.03 1.51 0 2.763-1.063 2.957-2.434.31.002.63-.011.95-.011zM3.819 10.24c.97-.027 1.78.735 1.813 1.705.001.33-.1.654-.287.926-.326.46-.845.746-1.408.773h-.123a1.91 1.91 0 0 1-.634-.108 1.81 1.81 0 0 1-.94-.753 1.621 1.621 0 0 1-.232-.843 1.765 1.765 0 0 1 1.81-1.7zm15.833-.016a1.75 1.75 0 0 1 1.653 1.705c0 .166-.025.332-.076.49a1.7 1.7 0 0 1-.695.906c-.308.202-.669.31-1.038.308-.798.013-1.51-.5-1.75-1.262a1.6 1.6 0 0 1 .25-1.397c.349-.47.9-.75 1.487-.75h.169zm-7.985 0a1.853 1.853 0 0 1 1.429.66 1.621 1.621 0 0 1 .336 1.438 1.785 1.785 0 0 1-1.582 1.302h-.18a1.885 1.885 0 0 1-.985-.274 1.686 1.686 0 0 1-.83-1.433 1.741 1.741 0 0 1 1.812-1.693zm3.849-3.958 1.894 3.636c-.39.347-.674.796-.82 1.297-.343 0-.695-.018-1.026-.018-.33 0-.694 0-1.026.018a2.779 2.779 0 0 0-.9-1.366l1.878-3.567zM21.71 1.1l-2.922 8.105a2.85 2.85 0 0 0-.37.111L15.53 3.775l-2.895 5.5a3.112 3.112 0 0 0-.385-.098L9.337 1.1H21.71z" fill="url(#tnuocsiz6X)" transform="translate(99.404 118.757)"/>
            <path fill="#6A6F90" d="M119.438 127.928v1.9l3.31-9.17v-1.9zM110.42 127.946l-3.314-9.189v1.901l3.314 9.19zM121.585 133.789a.086.086 0 0 1 0-.026c.039-.083.076-.166.108-.252v-.033c.028-.08.054-.162.075-.231a.338.338 0 0 1 0-.046c.02-.088.035-.177.046-.267v-.058c0-.092.016-.185.016-.278v-1.912c0 .092-.006.185-.016.278v.057c-.01.09-.026.179-.046.267a.338.338 0 0 0 0 .046c-.021.081-.047.162-.075.232v.032c-.032.086-.069.17-.108.252 0 .019-.019.037-.03.056-.04.08-.084.157-.133.232v1.903c.049-.075.093-.152.132-.231l.03-.021zM101.13 132.698a2.71 2.71 0 0 1-.894-1.996v1.901a2.71 2.71 0 0 0 .893 1.996v-1.901zM104.133 135.403l.07-.15c.1-.036.2-.076.296-.121l.062-.028a3.98 3.98 0 0 0 .278-.148h.014l.023-.016c.103-.064.201-.134.294-.211.094-.075.181-.157.262-.246l.023-.02.012-.014c.078-.084.15-.173.218-.267l.034-.048a2.62 2.62 0 0 0 .174-.292l.014-.02c0-.015.011-.029.016-.04a2.21 2.21 0 0 0 .088-.202c0-.018.016-.04.026-.06a2.29 2.29 0 0 0 .083-.275l.014-.056a2.19 2.19 0 0 0 .04-.232v-.076c.011-.095.017-.19.018-.285v-1.894c0 .095-.007.19-.019.285v.078c0 .075-.023.149-.04.232l-.013.058a2.612 2.612 0 0 1-.079.262c0 .018-.016.039-.025.057a1.961 1.961 0 0 1-.118.262c-.052.101-.11.199-.174.292l-.035.049c-.067.093-.14.183-.218.268l-.034.035a2.642 2.642 0 0 1-.243.236c-.093.076-.19.147-.292.21l-.042.026a3.47 3.47 0 0 1-.275.149l-.086.03c-.098.047-.2.087-.303.12l-.07.15-.035.082c-.12.264-.183.552-.183.843v1.9c0-.29.063-.578.183-.842l.042-.081zM122.01 135.54c0 .027-.016.055-.022.083a3.09 3.09 0 0 1-.056.183l-.03.092c-.021.058-.044.116-.067.174l-.035.083c-.03.07-.06.14-.095.207l-.02.044a2.023 2.023 0 0 1-.135.231l-.042.067a4.21 4.21 0 0 1-.109.17c-.037.055-.037.053-.058.078l-.115.155-.056.072a6.347 6.347 0 0 1-.164.188l-.024.025c-.062.067-.13.134-.199.2l-.062.055c-.049.046-.1.09-.153.134l-.076.065-.158.118-.076.058a3.922 3.922 0 0 1-.206.134l-.04.028a3.75 3.75 0 0 1-.231.132c-1.054.572-2.242.734-3.39.89-.58.078-1.126.152-1.656.277-1.436.348-2.874 1.015-4.273 1.668-1.943.907-3.937 1.834-5.894 1.834a5.542 5.542 0 0 1-3.096-.927c-1.357-.884-2.068-2.315-2.068-4.11v1.901c0 1.792.711 3.224 2.068 4.108.917.61 1.995.933 3.096.927 1.964 0 3.951-.927 5.894-1.832 1.39-.656 2.844-1.33 4.275-1.658.53-.125 1.077-.2 1.656-.278 1.158-.155 2.336-.317 3.39-.89.076-.041.155-.087.231-.134l.033-.02.206-.137.076-.058c.054-.04.107-.079.158-.12l.076-.063c.054-.044.105-.088.153-.134l.063-.056c.07-.065.136-.132.199-.2l.018-.02.176-.194.056-.072.118-.155a.926.926 0 0 0 .053-.08c.04-.055.077-.11.111-.168l.042-.067c.049-.08.093-.16.134-.232a5.587 5.587 0 0 0 .111-.243l.035-.083c.024-.058.047-.116.068-.174.02-.058.02-.063.03-.093.009-.03.039-.12.055-.183.016-.062.016-.055.023-.083a4.31 4.31 0 0 0 .13-1.035v-1.918a4.31 4.31 0 0 1-.127 1.035z"/>
            <path d="M121.867 130.686c0 .518-.152 1.025-.438 1.459.605.922.833 2.04.637 3.126a4.418 4.418 0 0 1-2.283 3.054c-1.054.572-2.242.734-3.39.89-.58.078-1.126.152-1.656.277-1.438.339-2.876 1.006-4.275 1.659-1.943.907-3.937 1.834-5.894 1.834a5.542 5.542 0 0 1-3.096-.927c-1.681-1.095-2.371-3.033-1.945-5.458.215-1.22.787-2.316 1.29-3.29l.312-.612a2.71 2.71 0 0 1-.893-1.996c0-1.547 1.34-2.807 2.987-2.807 1.646 0 2.985 1.26 2.985 2.807a2.828 2.828 0 0 1-2.006 2.644l-.069.151-.035.081c-.463 1.03-.018 2.212 1.045 2.84a9.152 9.152 0 0 0 2.908-1.752 9.52 9.52 0 0 0 1.443-1.597 2.779 2.779 0 0 1-1.41-2.386 2.858 2.858 0 0 1 2.336-2.737l-3.314-9.189h15.641l-3.31 9.173a2.86 2.86 0 0 1 2.43 2.756zm-.956 4.4a3.07 3.07 0 0 0 .053-.542 3.321 3.321 0 0 0-.38-1.554 3.096 3.096 0 0 1-1.702.502c-1.512 0-2.765-1.063-2.96-2.434-.31 0-.63-.016-.949-.016-.32 0-.64 0-.95.016-.19 1.362-1.442 2.432-2.952 2.432-.15 0-.3-.01-.45-.03a10.71 10.71 0 0 1-1.764 2.008 10.305 10.305 0 0 1-3.568 2.084l-.232.08-.232-.108c-1.313-.634-2.084-1.832-2.084-3.075a3.01 3.01 0 0 1 .148-.952 3.122 3.122 0 0 1-.77-.183l-.249.484c-.49.938-.998 1.92-1.185 2.98-.069.383-.104.77-.104 1.158 0 1.1.31 2.409 1.558 3.224l.185.113.116.067a4.339 4.339 0 0 0 2.117.552h.155c1.352-.03 2.779-.593 4.3-1.29l.2-.09.194-.09.535-.249c1.454-.68 2.96-1.39 4.513-1.741.589-.137 1.19-.232 1.772-.299 1.086-.146 2.112-.285 2.969-.75a3.312 3.312 0 0 0 1.72-2.29m-12.174-15.236 2.914 8.077c.13.025.258.057.384.098l2.895-5.5 2.887 5.534a2.85 2.85 0 0 1 .371-.11l2.922-8.106h-12.373m8.082 8.8-1.903-3.626-1.878 3.566c.43.355.744.83.9 1.366.343 0 .684-.018 1.026-.018.343 0 .695 0 1.026.018.146-.5.43-.95.82-1.297m3.895 2.027a1.75 1.75 0 0 0-1.644-1.698h-.169a1.853 1.853 0 0 0-1.5.75 1.6 1.6 0 0 0-.25 1.396c.24.763.951 1.276 1.75 1.263.369.002.73-.106 1.037-.308a1.7 1.7 0 0 0 .776-1.403m-11.442 0c.007.59.32 1.133.83 1.433.296.18.636.275.983.273h.18a1.785 1.785 0 0 0 1.576-1.313 1.621 1.621 0 0 0-.336-1.438 1.853 1.853 0 0 0-1.429-.66c-.09 0-.181.007-.27.019a1.741 1.741 0 0 0-1.543 1.683m-6.035-1.686a1.765 1.765 0 0 0-1.816 1.705c-.001.297.079.588.232.843.218.35.55.616.94.752.204.072.418.11.635.11h.122a1.836 1.836 0 0 0 1.404-.784c.188-.272.288-.595.287-.926a1.765 1.765 0 0 0-1.813-1.704" fill="#FFF"/>
        </g>
        <g fill-rule="nonzero">
            <path d="M88.688 62.187c.763-.093 1.104.114 1.163.775.018.282-.05.562-.196.804l-3.457 5.988c-.208-.489-.406-.981-.631-1.461a.457.457 0 0 1 .043-.472l.509-.88 1.622-2.81-5.601.69c.051.135.078.216.11.293.596 1.398 1.185 2.802 1.783 4.194.333.767.633 1.551.491 2.54a7.063 7.063 0 0 1-.181.81 4.5 4.5 0 0 1-.45 1.08l-2.374 4.11a1.147 1.147 0 0 1-.415.431 1.312 1.312 0 0 1-.749.182.51.51 0 0 1-.408-.236c-1.273-2.99-2.545-5.98-3.816-8.973-.185-.418-.161-.9.064-1.297a1.476 1.476 0 0 1 1.118-.717c1.077-.134 2.153-.266 3.228-.397.137-.017.272-.036.445-.06l-.702-1.673a1.465 1.465 0 0 1 .054-1.317c.243-.405.663-.67 1.133-.714 2.406-.3 4.811-.597 7.217-.89zm-6.894 6.522a.276.276 0 0 0-.244-.158c-1.169.13-2.339.279-3.564.428l2.95 6.944.968-1.676.562-.973c.482-.834.576-1.614.28-2.34a82.228 82.228 0 0 0-.95-2.227" fill="#000" opacity=".1"/>
            <path d="M18.645 8.768v.009a.435.435 0 0 1-.018.078v.02c0 .006-.014.036-.023.056l-.01.021a.459.459 0 0 1-.036.063l-.016.014a1.282 1.282 0 0 1-.052.069l-.035.039-.036.038a.622.622 0 0 1-.042.037c-.015.012-.028.026-.042.038a1.377 1.377 0 0 1-.21.145l-.031.017a.897.897 0 0 1-.077.036l-.04.017-.053.02-.047.015-.055.016-.042.01a1.333 1.333 0 0 1-.171.03h-.033a1.457 1.457 0 0 1-.146.007h-1.269V8.09L14.46 5.832l-1.696-2.25-.06.072-.043.052-.016.019-.03.036a.177.177 0 0 1-.013.016l-.032.042c-.917 1.22-1.838 2.432-2.745 3.645-.091.12-.184.247-.282.369-.047.059-.095.12-.144.175l-.031.037a6.498 6.498 0 0 1-.15.168l-.027.028c-.05.053-.1.105-.153.154l-.018.018a3.49 3.49 0 0 1-.173.154l-.04.034c-.056.047-.12.094-.176.138l-.02.012c-.056.041-.115.081-.177.12L8.39 8.9c-.067.04-.135.08-.206.12l-.037.019a3.328 3.328 0 0 1-.199.091l-.075.033a7.063 7.063 0 0 1-.988.294c-.047.01-.095.02-.143.028l-.145.025a3.016 3.016 0 0 1-.145.019l-.176.018H6.19c-.09 0-.181.008-.271.008H2.603l4.482-5.942c.742.985 1.456 1.926 2.153 2.871a.222.222 0 0 1 .035.12V5.056a.222.222 0 0 0-.035-.12C8.54 3.99 7.827 3.05 7.085 2.064L2.546 8.09v1.473H1.17a1.22 1.22 0 0 1-.148-.009H.998a1.449 1.449 0 0 1-.12-.021H.856a.994.994 0 0 1-.12-.04l-.027-.01a.878.878 0 0 1-.12-.058 1.312 1.312 0 0 1-.531-.569A.583.583 0 0 1 0 8.668v-.054 1.546c.002.083.02.165.057.24.117.237.303.433.532.563.039.022.079.04.12.056l.027.011c.04.016.08.03.12.04H.88l.06.013.06.009h.023c.037 0 .076.007.113.008h4.782c.09 0 .18 0 .271-.008l.084-.008.12-.008.059-.008.147-.02.145-.013.143-.03c.03 0 .06-.01.088-.018l.109-.027c.267-.065.53-.147.787-.245l.043-.018.032-.013c.067-.03.135-.06.198-.092l.038-.02c.071-.035.14-.075.206-.12.015-.008.03-.018.044-.027.061-.039.12-.077.177-.12l.02-.014c.06-.044.12-.09.176-.138l.02-.015.02-.018c.059-.05.12-.101.172-.154l.018-.018c.053-.05.104-.102.153-.154l.028-.029c.05-.055.101-.11.15-.169l.03-.036c.05-.057.098-.12.145-.175.096-.122.19-.244.282-.369.906-1.22 1.827-2.43 2.74-3.645l.038-.047a.177.177 0 0 1 .012-.016l.03-.036.017-.022.042-.05.06-.071 3.341 4.433H10.52v1.549h6.914c.05 0 .097 0 .146-.007h.032c.058-.007.12-.017.171-.03h.011l.031-.008.056-.015.047-.016.053-.02.02-.006.02-.01c.026-.01.051-.024.076-.036l.032-.017a1.164 1.164 0 0 0 .21-.146l.009-.007.032-.03.041-.048.036-.04a.53.53 0 0 0 .035-.038l.007-.008.045-.061.006-.01a.543.543 0 0 0 .035-.062l.01-.022a1.15 1.15 0 0 0 .024-.058c.007-.019 0-.012 0-.018v-.008a.466.466 0 0 0 .015-.078.527.527 0 0 0 0-.081V8.687c.006.027.01.054.011.081z" fill="url(#2w6nblvvtY)" transform="rotate(-60 98.628 -24.808)"/>
            <path d="M18.318 7.935c.462.615.454 1.014-.09 1.395a1.394 1.394 0 0 1-.794.233H10.52c.319-.425.646-.843.95-1.278a.457.457 0 0 1 .43-.198h4.261l-3.398-4.505c-.092.112-.148.175-.199.24-.912 1.216-1.833 2.429-2.74 3.642-.498.672-1.027 1.325-1.954 1.695-.259.099-.523.181-.792.248a4.5 4.5 0 0 1-1.16.15H1.17a1.147 1.147 0 0 1-.58-.144 1.312 1.312 0 0 1-.532-.557.51.51 0 0 1 0-.472C2.01 5.787 3.965 3.19 5.92.594c.27-.37.698-.59 1.156-.594.467.005.905.23 1.18.61.654.865 1.306 1.731 1.957 2.597.083.11.167.217.275.355l1.098-1.444c.27-.378.703-.605 1.167-.612.472.008.911.24 1.185.624 1.463 1.933 2.923 3.868 4.379 5.805zM9.223 5.226a.276.276 0 0 0 .015-.29C8.54 3.99 7.827 3.05 7.085 2.064L2.546 8.09h3.059c.964 0 1.686-.308 2.168-.928.496-.642.98-1.287 1.453-1.936" fill="url(#gfxcz4bnzZ)" transform="rotate(-60 98.628 -24.808)"/>
        </g>
        <g fill-rule="nonzero">
            <path fill="#000" opacity=".1" d="m154.892 145.44 4.662 6.416 4.663 6.419 14.82-10.768-9.325-12.835z"/>
            <path fill="#00436F" d="m162.073 155.324 14.82-10.768 1.355 1.865-14.82 10.767z"/>
            <path fill="url(#tf9bepy0oaa)" d="M0 0v15.865h18.319V0z" transform="rotate(-36 295.641 -163.81)"/>
            <path d="M162.891 144.142c1.427-1.037 2.602-1.89 2.612-1.876.145.163.278.336.398.518l.374.514-1.926 1.4 3.45 4.749-1.367.993-3.45-4.747-1.925 1.399-.38-.524-.367-.534 2.581-1.892zM172.72 141.987a2.036 2.036 0 0 1 1.312 1.436c.151.707-.164 1.49-.903 2.211a5.917 5.917 0 0 1-1.125.808 3.65 3.65 0 0 1-2.006.413 2.818 2.818 0 0 1-.75-.207l.085-.18.352-.682.266-.516.178.042c.29.077.594.098.893.063.294-.066.57-.191.812-.37.271-.178.478-.44.589-.745a.617.617 0 0 0-.43-.775c-.221-.056-.543.002-1.397.228-.97.276-1.426.324-1.934.28a2.184 2.184 0 0 1-.873-.346 2.69 2.69 0 0 1-.623-.808c-.31-.754-.07-1.611.635-2.323.121-.117.252-.225.39-.322.238-.178.492-.334.759-.466a2.419 2.419 0 0 1 1.257-.2c.224.021.445.073.655.153.014.018-.353.86-.59 1.35-.025.018-.117.006-.23-.03a1.082 1.082 0 0 0-.956.146l-.075.054c-.403.293-.523.682-.292 1a.55.55 0 0 0 .243.195c.23.103.492.075 1.225-.126 1.346-.37 1.99-.45 2.534-.283z" fill="#EBEBEB"/>
        </g>
        <g fill-rule="nonzero">
            <path d="M208.963 49.503c.934.468 1.245 1.496.711 2.3-.387.544-1.019.86-1.686.843-.337.001-.67-.076-.972-.226a1.932 1.932 0 0 1-.476-.336l-4.448 2.228c.066.17.1.35.1.533 0 .927-.87 1.683-1.945 1.683-1.075 0-1.957-.745-1.957-1.684 0-.165.026-.328.078-.484l-4.484-2.237a1.99 1.99 0 0 1-.434.297c-.3.148-.63.226-.966.226a2.009 2.009 0 0 1-1.683-.843c-.534-.804-.217-1.832.712-2.3.162-.082.334-.142.512-.178v-4.487a2.135 2.135 0 0 1-.52-.178c-.928-.465-1.245-1.495-.71-2.3a2.014 2.014 0 0 1 1.686-.844c.336 0 .668.077.97.226.159.08.307.18.439.299l4.485-2.242a1.544 1.544 0 0 1-.078-.48c-.007-.93.86-1.683 1.937-1.683s1.945.752 1.945 1.683a1.49 1.49 0 0 1-.087.482l4.49 2.243c.132-.121.28-.223.441-.302a2.17 2.17 0 0 1 .97-.226 2.021 2.021 0 0 1 1.687.843c.533.806.217 1.833-.712 2.3-.164.082-.338.142-.518.179v4.488c.178.038.35.097.513.177zm-2.658.617c.095-.141.21-.268.341-.377l-5.87-8.805a2.27 2.27 0 0 1-1.086 0l-5.871 8.807c.13.108.245.235.341.375.091.137.16.287.205.445h11.742c.045-.158.114-.308.205-.445m-13.294-.776 5.871-8.806c-.02-.015-.037-.032-.057-.049l-4.492 2.248c.147.439.081.922-.178 1.305a1.937 1.937 0 0 1-1.215.792v4.492l.078.018m14.506-.018v-4.492a1.937 1.937 0 0 1-1.221-.793 1.493 1.493 0 0 1-.178-1.303l-4.501-2.245-.053.045 5.87 8.806.077-.018m-5.855 4.383 4.467-2.233c-.014-.038-.024-.075-.035-.11H194.36c0 .02-.015.042-.02.065l4.492 2.244a2.162 2.162 0 0 1 2.847.034" fill-opacity=".1" fill="#000"/>
            <path d="m193.168 43.918.073-.025.03-.012a1.58 1.58 0 0 0 .127-.053l.062-.029c.054-.028.108-.059.16-.09h.016c.067-.045.131-.093.192-.145l.046-.04a1.834 1.834 0 0 0 .17-.171 1.916 1.916 0 0 0 .227-.36c.01-.021.018-.043.027-.066.009-.023.037-.087.053-.133.016-.046.014-.052.02-.078.005-.027.021-.082.028-.125.007-.043 0-.055.011-.084a.518.518 0 0 0 .009-.07v-.593l4.377-2.187-4.968 7.453v1.78l5.871-8.808a2.256 2.256 0 0 0 .8.05h.045c.082-.012.16-.026.239-.046l5.871 8.805v-1.78l-4.962-7.447 4.366 2.183v.5c.002.3.092.59.26.838.287.412.723.695 1.215.792v-1.78a1.937 1.937 0 0 1-1.215-.79 1.587 1.587 0 0 1-.178-.385v-.916l-3.953-1.973v-1.449.102c-.003.06-.011.119-.024.178v.033c-.011.06-.027.12-.046.178v.926l-.466-.234-.053.045v1.601l-.8-1.2c-.084.02-.17.035-.257.047h-.043a2.256 2.256 0 0 1-.8-.05l-.801 1.194v-1.601c-.02-.014-.037-.032-.057-.048l-.466.233v-.923a1.544 1.544 0 0 1-.078-.48v1.442l-3.95 1.975v.925c-.014.041-.03.082-.048.121-.018.04-.016.045-.027.066-.032.066-.067.13-.107.192a1.916 1.916 0 0 1-.115.153l-.018.018c-.048.055-.1.107-.155.157l-.046.04c-.061.052-.125.1-.192.145h-.018a2.078 2.078 0 0 1-.16.09l-.062.029a1.58 1.58 0 0 1-.127.053 1.016 1.016 0 0 1-.103.037l-.05.017a1.815 1.815 0 0 1-.169.044v1.78c.057-.013.114-.028.17-.045l.05-.006zM209.928 40.78c-.01.065-.024.13-.043.192a.089.089 0 0 1 0 .023 1.188 1.188 0 0 1-.084.208 1.317 1.317 0 0 1-.094.178l-.018.03a1.694 1.694 0 0 1-.299.336c-.012.013-.028.022-.04.033a1.74 1.74 0 0 1-.178.126 2.02 2.02 0 0 1-.2.118c-.078.038-.16.07-.242.1l-.039.013a2.215 2.215 0 0 1-.236.064v1.78c.08-.017.158-.039.236-.064l.04-.015h.03c.07-.026.142-.057.211-.09a2.01 2.01 0 0 0 .178-.105l.018-.013a1.74 1.74 0 0 0 .178-.126c.012-.01.028-.02.04-.032.064-.055.124-.114.179-.178.04-.049.078-.099.114-.151l.017-.03a1.317 1.317 0 0 0 .109-.209c.028-.057.05-.117.07-.178a.089.089 0 0 0 0-.023c.018-.063.032-.127.042-.192 0-.043.01-.084.014-.126.004-.043 0-.059 0-.09v-1.778a1.46 1.46 0 0 1-.003.199zM191.506 43.804c.165.082.34.142.52.178v-1.779a2.135 2.135 0 0 1-.52-.178 1.82 1.82 0 0 1-.711-.628 1.523 1.523 0 0 1-.26-.832v1.779c.018.632.395 1.2.971 1.46z" fill="#771C59"/>
            <path d="M209.928 48.57a.973.973 0 0 1-.029.125c0 .027-.012.054-.02.08a1.373 1.373 0 0 1-.053.134c-.02.044-.016.044-.026.066a1.52 1.52 0 0 1-.113.194 1.413 1.413 0 0 1-.27.316l-.044.043a2.02 2.02 0 0 1-.407.267l-.044.018a1.615 1.615 0 0 1-.177.073l-.098.03-.134.037-.105.022c-.048 0-.096.017-.144.023h-.043c-.074 0-.149.012-.226.012-.336 0-.669-.076-.97-.226a1.932 1.932 0 0 1-.478-.334l-.398.199v-.808c-.014-.037-.025-.075-.036-.11h-11.742c0 .021-.014.043-.02.066v.923l-.46-.231c-.057.051-.117.1-.178.144l-.041.028a1.891 1.891 0 0 1-.436.22l-.093.028c-.048.014-.094.03-.144.04a.89.89 0 0 1-.1.02c-.05.01-.097.02-.147.025h-.045c-.073 0-.147.013-.222.013a2.009 2.009 0 0 1-1.683-.844 1.502 1.502 0 0 1-.267-.832v1.779c.001.299.092.59.26.838.389.547 1.026.863 1.697.843.075 0 .15 0 .222-.012H192.796c.038 0 .073-.015.11-.022a.89.89 0 0 0 .1-.02c.05-.01.096-.026.144-.04l.093-.029h.014a2.41 2.41 0 0 0 .21-.09c.061-.03.12-.065.178-.102l.034-.023.04-.028c.063-.045.122-.093.179-.145l4.405 2.205V54c0 .93.868 1.683 1.944 1.683H200.585l.15-.029.066-.016a2.05 2.05 0 0 0 .202-.062c.065-.023.127-.052.189-.08l.057-.03.121-.068.027-.016.025-.018a1.736 1.736 0 0 0 .377-.327l.021-.021.029-.036.028-.036a1.47 1.47 0 0 0 .087-.126c.027-.043.05-.087.073-.132a.22.22 0 0 1 .018-.035c.016-.036.03-.071.044-.107a1.23 1.23 0 0 0 .057-.185c.011-.049.02-.098.025-.148v-.77l4.366-2.213c.142.136.304.25.48.336.303.15.635.227.972.226.077 0 .151 0 .226-.012H208.305l.107-.02.105-.021.133-.038.098-.03h.016a1.73 1.73 0 0 0 .157-.068l.042-.017a1.78 1.78 0 0 0 .402-.263l.045-.043c.048-.045.094-.091.137-.14l.014-.015c.043-.05.083-.103.12-.158a1.52 1.52 0 0 0 .111-.194c.011-.022.018-.043.027-.066.009-.023.037-.09.053-.134.016-.044.015-.053.02-.08a.973.973 0 0 0 .04-.208c0-.025 0-.048.01-.073.01-.025 0-.059 0-.087v-1.78c0 .054-.005.108-.013.16.001.023 0 .045-.001.067zm-11.547 4.11v-.955l-2.448-1.215h8.49l-2.336 1.167v1.068l-.043.103a1.9 1.9 0 0 1-.09.167l-.013.018a1.47 1.47 0 0 1-.075.108l-.028.036-.05.057a1.736 1.736 0 0 1-.178.178c-.063.054-.13.103-.2.15l-.05.033-.122.068-.057.03a2.05 2.05 0 0 1-.391.142l-.066.016-.15.029-.104.014H200.237c-.881-.002-1.625-.512-1.861-1.213h.005z" fill="#771C59"/>
            <path d="M18.435 11.867c.935.468 1.246 1.496.712 2.3-.387.544-1.02.86-1.686.844-.337 0-.67-.077-.972-.226a1.932 1.932 0 0 1-.477-.337l-4.448 2.228c.066.17.1.351.1.534 0 .927-.87 1.683-1.945 1.683-1.074 0-1.957-.746-1.957-1.685 0-.165.026-.328.079-.484l-4.484-2.236a1.99 1.99 0 0 1-.434.297c-.3.148-.63.225-.966.226a2.009 2.009 0 0 1-1.683-.844c-.534-.804-.217-1.832.712-2.3.162-.082.334-.142.512-.178V7.202a2.135 2.135 0 0 1-.52-.178C.05 6.56-.266 5.53.268 4.724a2.014 2.014 0 0 1 1.686-.844c.337 0 .669.077.97.226.16.08.307.18.44.3l4.485-2.243a1.544 1.544 0 0 1-.078-.48C7.762.753 8.63 0 9.707 0c1.076 0 1.945.753 1.945 1.683a1.49 1.49 0 0 1-.088.482l4.491 2.244c.132-.122.28-.224.441-.303a2.17 2.17 0 0 1 .97-.226 2.021 2.021 0 0 1 1.686.844c.534.806.218 1.832-.711 2.3-.164.081-.338.141-.518.178v4.489c.178.037.35.096.512.176zm-2.658.617c.096-.14.211-.268.342-.377l-5.871-8.805a2.27 2.27 0 0 1-1.085 0L3.29 12.11c.131.109.246.235.342.375.09.137.16.287.205.445H15.58c.044-.158.113-.308.205-.445M2.49 11.71l5.871-8.807c-.02-.014-.037-.032-.057-.048L3.813 5.1c.147.44.081.922-.178 1.306a1.937 1.937 0 0 1-1.215.791v4.493l.078.018m14.505-.018V7.198a1.937 1.937 0 0 1-1.22-.793 1.493 1.493 0 0 1-.178-1.302l-4.501-2.246-.054.045 5.871 8.807.077-.018m-5.855 4.382 4.467-2.233c-.014-.037-.025-.075-.035-.11H3.832c0 .021-.014.042-.02.065l4.493 2.244a2.162 2.162 0 0 1 2.847.034" fill="url(#sexnyr0uwab)" transform="translate(190.535 35.001)"/>
        </g>
        <g fill-rule="nonzero" stroke="#FFF">
            <path d="M171.47 538.745a1.669 1.669 0 0 1 1.38-.258l7.155 1.797a4.15 4.15 0 0 0 .044.87c.293 1.726 1.36 5.665 5.504 10.837a90.358 90.358 0 0 1-.617-6.76 1.74 1.74 0 0 1 .731-1.508 1.764 1.764 0 0 1 1.683-.187l6.592 2.926c.098.34 1.106 3.334 4.74 5.153-.174-.658-.487-1.258-.711-1.987l7.715 2.435c.648.29 1.042.867 1.143 1.504a2.083 2.083 0 0 1-.573 1.786c-.67.643-1.458 1.414-2.24 2.187l-.468.464a214.562 214.562 0 0 0-3.002 3.026c-.907.274-1.158.232-1.502.135a13.118 13.118 0 0 1-2.64-1.25l-.207-.13.162.5c.086.253.174.506.266.758l.285.756c.18.45.218.92.136 1.357a2.24 2.24 0 0 1-.623 1.186l-5.04 5.1-.416.584c-.998-.606-3.402-2.159-6.416-5.258a69.107 69.107 0 0 0 2.773 5.815 1.805 1.805 0 0 1-.316 2.091l-5.838 5.644a1.652 1.652 0 0 1-1.434.468 1.745 1.745 0 0 1-1.257-.868c-2.53-4.533-9.903-19.71-7.761-37.94a1.85 1.85 0 0 1 .752-1.233z"/>
        </g>
        <g fill-rule="nonzero">
            <path d="M183.078 562.488c-4.74-12.725-3.588-21.75-3.588-21.75s.158 5.358 6.796 12.983c1.594 10.503 4.526 15.65 4.526 15.65l.375-.38-.365.437s-3.547-2.067-7.744-6.94zM195.305 558.643c1.473 1.08 2.8 1.778 3.723 2.063a1.934 1.934 0 0 1-.017-.005s1.017.193 1.15-.064c.977-1.428.897-3.787-.574-8.012-4.875-1.845-6.07-5.736-6.07-5.736s.07 5.653 1.788 11.754z" fill="#364FDE"/>
            <path d="M179.49 540.738s-1.683 13.18 7.384 30.14a1.31 1.31 0 0 1-.225 1.51l-5.836 5.641c-.55.56-1.5.415-1.902-.288-2.51-4.496-9.826-19.553-7.701-37.637.117-.726.789-1.245 1.513-1.065l6.767 1.7z" fill="#56D8FF"/>
            <path d="m196.062 564.057-5.25 5.313s-4.499-7.896-5.381-24.09c-.033-.937.856-1.55 1.721-1.215l6.365 2.824s.098 7.945 2.924 15.163c.288.72.123 1.513-.379 2.005zM205.502 552.597l-6.064-2.754c-.376-.176-.83.25-.654.634 2.222 5.604 2.508 8.507 1.377 10.16-.133.257-1.15.064-1.15.064.979.317 1.169.05 1.169.05.796-.833 3.8-3.844 5.713-5.68.749-.767.549-2.033-.391-2.474z" fill="#667DFF"/>
        </g>
        <g>
            <path d="M21.145 8.976c12.271-5.209 26.511-.966 33.93 10.11l42.51 63.462-74.163 31.958-18.007-74.23c-3.123-12.877 3.533-26.123 15.73-31.3z" fill="url(#wss8rwxhkac)" opacity=".1" transform="translate(186.125 217.928)"/>
            <path d="M27.358 19.163a11.323 11.323 0 0 1 15.295 2.169l55.104 68.262-69.219 29.738-8.742-83.612a17.925 17.925 0 0 1 7.562-16.557z" fill="url(#3upm035ehad)" opacity=".3" transform="translate(186.125 217.928)"/>
            <path d="M27.732 19.383c4.72-3.297 11.218-2.144 14.516 2.575l.078.114 60.206 88.66C69.58 62.454 48.369 34.622 38.9 27.238c-9.47-7.384-14.293-5.683-14.472 5.104l17.01 105.052-20.296-101.6a16.157 16.157 0 0 1 6.59-16.41z" fill="url(#nqgj234fcae)" opacity=".3" transform="translate(186.125 217.928)"/>
        </g>
        <g>
            <path d="M220.195 284.428c.121.234.464.9.617 1.274.424 1.038 1.21 3.049 2.08 5.255.03.077.139.342.308.752l26.496 1.389c-2.883-4.81-5.5-9.178-5.875-9.788-.396-.643-2.307-3.945-3.045-5.062a201.855 201.855 0 0 1-2.286-3.563c-2.01-3.202-4.011-6.578-4.564-7.902a3.077 3.077 0 0 1-.113-.3 3.626 3.626 0 0 1-.137-.92c-.063-1.902.9-4.733 1.98-6.392 1.276-1.957 3.906-5.598 3.923-6.987.017-1.389-4.247-10.162-5.15-11.863-.901-1.702-1.128-2.449-2.726-2.27-1.248.14-3.304 1.62-4.137 2.255-.23.177-.367.287-.367.287s-.022-.083-.066-.22c-.152-.49-.565-1.672-1.171-2.401-.781-.935-2.629-2.134-3.959-2.168-1.33-.036-2.631.662-2.882 1.097-.193.33-.612 1.06-.802 1.393l-.098.172s-.09-.03-.24-.07c-.5-.137-1.674-.393-2.445-.076-1 .415-1.838.918-2.163 1.292-.251.288-.628 1.233-.788 1.653l-.077.204s-.086-.047-.237-.113c-.505-.23-1.737-.7-2.761-.43-1.323.346-2.557 2.069-2.674 3.04a6.095 6.095 0 0 0-.021.194c-.033.377-.033.804-.023 1.186.008.383.032.718.044.91l.015.17s-.017-.003-.045-.012a5.396 5.396 0 0 0-.314-.074c-.43-.09-1.155-.185-1.603.023-.676.315-1.63 1.156-1.818 1.984-.188.827-.33 3.364-.121 4.657.21 1.292.7 1.581.745 2.448.042.868.63 2.996 1.058 3.637.102.152.29.527.528 1.03.294.62.659 1.44 1.025 2.288.099.226.195.455.291.681.471 1.116.848 2.077 1.24 2.701 1.344 2.135 3.728 4.199 4.535 5.166.121.146.283.323.47.519.318.336.715.737 1.13 1.16.779.799 1.621 1.685 2.134 2.396a5 5 0 0 1 .275.426c.06.11.128.244.202.403.665 1.46 1.814 4.883 3.206 7.758.133.277.269.547.406.811" fill="#ED9C7E"/>
            <path d="M225.248 278.13s2.007.256 3.306 1.486 5.17 9.26 5.17 9.26-2.853-7.22-3.728-9.79c-.556-1.634.192-3.677.192-3.677-1.106 1.703-2.818 2.514-4.94 2.72" fill="#D67A60"/>
            <path d="M227.717 240.579s2.123-1.846 3.785-2.161c1.662-.315 2.023.513 3.293 3.301 0 0-1.523-2.682-2.8-2.71-1.276-.03-4.278 1.57-4.278 1.57M224.726 291.789l-.253-.874a48.929 48.929 0 0 0-6.6-13.989l-.623-.91s4.846 11.117 7.104 15.753l.372.02M213.083 241.333s.057-1.45 1.195-2.044c1.139-.594 2.804-1.049 3.545-.614.74.435 2.09 2.793 2.218 3.698.128.905.586 2.972.953 3.927 0 0-.937-1.218-1.397-2.961-.46-1.743-1.04-3.683-2.216-3.917-1.176-.234-3.031-.372-4.298 1.911M218.885 238.323s.084-1.19 1.069-1.71c.986-.521 2.436-.728 3.39-.237.955.491 3.091 1.769 3.443 3.946 0 0-1.056.662-2.549 1.01 0 0 1.635-.743.94-2.303-.696-1.56-2.1-2.435-3.289-2.364-1.188.072-2.198.435-3.004 1.658M207.091 262.733s.474 2.091 1.923 4.067c.74 1.009 4.002 3.871 5.202 4.298 1.199.426 5.023-1.552 6.236-2.44 1.213-.889 4.149-1.777 4.149-1.777s-1.456-.349-4.144.972c-2.689 1.322-4.875 2.913-6.592 2.188-1.717-.724-4.318-2.833-6.774-7.308" fill="#F1AE96"/>
            <path d="M219.1 253.947s-.045 2.323-1.774 3.026c-1.726.703-3.068-.1-3.068-.1s.113 1.125-1.678 1.828c-1.791.7-2.819-.183-2.819-.183.118-.368.383-.722.752-1.06.087-.08.18-.16.278-.236.563.185 1.088.249 1.44.142l.01-.003c1.077-.33 1.518-.87 1.309-1.61l-.014-.048c.098-.04.195-.083.294-.12a1.59 1.59 0 0 1 .076.347c.209.09 1.539.631 2.787.077.898-.399 1.425-1.228 1.618-1.868l.003-.014c.134-.034.208-.051.208-.051l.123-.028.455-.1" fill="#D67A60"/>
            <path d="m211.153 257.65-4.847 4.757a78.196 78.196 0 0 0-1.025-2.288l5.037-3.068.835.599" fill="#D67A60"/>
            <path d="M203.598 250.46s-.69-1.581.178-2.558c.867-.978 1.798-1.351 2.367-1.195.569.156 2.557 2.513 2.896 2.82.339.306 1.37 1.076 1.567 1.542.198.466.141 1.073-.316 1.642 0 0 .133-1.222-.474-1.753-.607-.53-3.129-3.255-3.8-3.46-.67-.204-2.14.259-2.418 2.962M207.187 243.948s.42-1.701 2.112-2.43c.07-.03.14-.058.21-.082 1.206-.426 2.54.16 3.136 1.292l2.448 4.66s-3.13-4.757-4.546-4.933c-1.415-.176-3.36 1.493-3.36 1.493" fill="#F1AE96"/>
            <path d="m209.773 249.327-2.924-2.783-.044-.13.045.012-.013-.169c-.028-.384-.085-1.345-.022-2.098.757 2.323 2.916 5.113 2.958 5.168M218.572 253.464c.078.29.106.55.04.765-.213.709-.796 1.624-1.791 2.066-.12.053-.24.097-.36.134-1.101.336-2.16-.002-2.557-.159-.095-.037-.152-.065-.164-.07a.158.158 0 1 1 .138-.284l.028.013c.208.09 1.54.632 2.786.078.898-.4 1.425-1.227 1.619-1.869.108-.36-.181-1.03-.46-1.68-.202-.465-.41-.946-.516-1.394-.176-.74-.434-1.246-.903-2.164a66.753 66.753 0 0 1-.778-1.559c-.712-1.478-2.464-4.449-3.382-5.986.15.068.237.114.237.114s.028-.079.077-.205c.931 1.56 2.646 4.475 3.352 5.94.308.64.567 1.146.774 1.553.481.939.745 1.457.93 2.234.1.42.303.89.498 1.343.118.274.235.544.326.797.04.115.077.226.106.333" fill="#D67A60"/>
            <path d="M222.974 249.117c.19.622.036 2.894-1.3 3.799-.262.176-.551.303-.847.393-.88.267-1.817.207-2.255.155-.143-.016-.233-.032-.25-.035a.158.158 0 0 1 .058-.31l.086.012c.388.056 1.987.228 3.03-.477 1.191-.805 1.343-2.898 1.176-3.445-.08-.261-.33-.757-.593-1.282-.31-.613-.629-1.247-.783-1.704-.118-.35-.256-1.007-.418-1.767-.231-1.09-.493-2.324-.741-2.862-.344-.743-1.335-2.277-2.155-3.198.15.04.239.07.239.07l.097-.17c.865.998 1.804 2.515 2.105 3.166.264.57.53 1.823.764 2.928.152.72.296 1.4.409 1.732.146.436.475 1.088.764 1.663.283.56.527 1.045.614 1.332" fill="#D67A60"/>
            <path d="M210.531 255.993s1.194-1.079 1.625-1.65c0 0 .91.64 1.043 1.26.133.619-.107 1.065-.988 1.326-.677.201-1.68-.936-1.68-.936M217.884 254.538c-.005-.536-.135-.903-.323-1.192-.23.272-.654.693-1.163 1.145-.482.428-1.336.585-1.83.642-.014.142.07.304.137.467.04.093.116.219.19.297.203.07.464.104.797.068 1.313-.143 1.59-.616 2.09-1.263a.952.952 0 0 0 .102-.164M222.255 251.27c.076-.472.075-.726-.045-1.059-.23.272-.917.94-1.61 1.343-.557.324-1.341.449-1.836.506-.013.141.071.303.138.466.039.094.116.219.19.298.203.07.464.104.797.067 1.313-.142 1.59-.615 2.09-1.262.04-.053.248-.303.276-.359M222.028 242.861s1.558 1.506 2.62 1.44c1.06-.067 2.698-1.793 2.698-1.793s-.325-.91-1.135-1.12c0 0-3.143.735-4.183 1.473" fill="#F4C0A8"/>
            <path d="M232.605 243.255c-.17.69-.754 1.686-1.526 2.598-.906 1.072-1.94 1.878-2.912 2.27-.118.048-.237.09-.357.127-.889.27-1.813.227-2.752-.13-1.038-.396-1.844-1.08-2.337-1.583-1.166-1.191-1.545-2.973-1.093-3.712.267-.434 1.4-.809 2.974-1.288l.172-.052c.59-.18 1.139-.35 1.482-.497.426-.183.7-.412.877-.617.044.14.066.222.066.222s.137-.11.368-.287c-.176.292-.523.686-1.186.972-.384.165-.996.351-1.644.548-1.104.335-2.612.794-2.84 1.164-.338.553-.092 2.16 1.05 3.326.754.771 2.761 2.46 5.102 1.515 2.14-.865 3.968-3.503 4.25-4.651a.158.158 0 0 1 .306.075" fill="#D67A60"/>
            <path d="M220.982 244.186s.317.41.692.158c0 0 .596 2.842 4.072 3.82 0 0 1.197.202 1.78.007 0 0-.033 1.52-1.205 2.277-1.172.757-4.345 2.437-5.418 4.331-1.073 1.894-1.182 6.326.684 7.848 0 0-1.206-.458-1.972-2.782-.765-2.324.045-4.362-.134-4.951-.18-.59-1.163-.333-1.163-.333s.546-.358-.07-1.56c0 0 .256.468 1.267.346 1.01-.122 1.76-.19 2.638-1.123.878-.933.765-2.567.67-3.06-.095-.494-1.198-2.402-1.346-2.903-.147-.5-.495-2.075-.495-2.075" fill="#D67A60"/>
            <path d="M226.822 250.01s.916-.67 1.699-.692c1.145-.032 3.863.638 5.57 2.63 0 0-2.21-3.92-6.565-3.777 0 0-1.01 1.062-.704 1.84" fill="#D67A60"/>
            <path d="M227.58 248.351s3.476-1.59 7.057-1.387c0 0-3.566.932-5.286 1.876l-1.77-.489M206.224 253.986s-1.308.214-2.245-.16c0 0 1.111.952 2.797.66l-.552-.5M208.691 256.248s-1.862.348-3.474 1.646c0 0 3.145-1.095 4.602-.905l-1.128-.74M211.23 251.444s-.242 1.651-1.703 2.453c0 0 1.073-.088 2.042-1.74l-.338-.713M217.387 250.653s-.722 2.034-3.05 2.605c0 0 1.644.384 3.292-1.81l-.242-.795M222.356 247.104s-.573 1.694-2.859 3.236c0 0 1.453-.246 3.1-2.441l-.241-.795" fill="#D67A60"/>
            <path d="M228.587 247.753s3.53-2.142 3.908-5.538c0 0 .991 1.813-1.054 3.644-2.046 1.831.683 1.222.683 1.222s-1.8.982-2.554.991c-.752.01-1.544.177-1.544.177l.56-.496M233.813 266.482c.025.084.063.185.112.302-2.052 1.11-3.272 1.014-7.02 1.392-3.425.346-6.786 2.057-6.867 2.097 3.29-2.652 8.45-2.934 10.398-3.41 1.319-.323 2.611-.962 3.24-1.298.011.339.055.648.137.917M225.144 270.342s-1.905 1.442-3.056 2.607c-1.24 1.258-2.543 1.49-3.575 1.804-.658.2-1.446.74-1.931 1.107a5.56 5.56 0 0 0-.201-.404 4.685 4.685 0 0 0-.276-.426c.446-.356 1.327-.893 2.798-1.166 2.316-.43 4.43-2.97 6.241-3.522M225.48 274.154s.431-1.231 3.102-1.97c2.671-.74 4.582-1.688 5.64-2.67 0 0-1.651 2.042-4.264 2.672-2.327.561-4.305 1.695-4.479 1.968M213.855 255.666c.025.09.042.177.051.263.015.118.014.231-.002.341-.084.62-.624 1.104-1.572 1.392l-.01.003c-1.032.312-2.972-.546-3.952-1.494-.57-.55-2.01-1.853-3.098-2.83h-.001l-1.793-1.494c.475.066 1 .404 1.397.717l.03.024.607.545h.001c1.086.976 2.51 2.264 3.076 2.81 1.003.97 2.807 1.673 3.643 1.42l.008-.003c1.078-.328 1.519-.869 1.31-1.609-.113-.403-.443-.793-.763-1.172-.211-.248-.43-.505-.587-.768-.192-.319-.425-.828-.673-1.365-.262-.57-.532-1.16-.757-1.526-.213-.35-1.027-1.176-1.888-2.05-.813-.825-1.729-1.754-2.39-2.53.215.044.358.086.358.086l-.013-.169c.644.742 1.503 1.613 2.27 2.392.912.925 1.7 1.725 1.933 2.106.234.383.508.981.774 1.559.244.53.474 1.03.657 1.334.145.241.345.478.556.728.342.403.696.82.828 1.29" fill="#D67A60"/>
            <path d="m205.512 253.133-.606-.545c.347.277.59.529.606.545M216.795 271.994a4.728 4.728 0 0 1-2.825.64c-.414-.423-.81-.823-1.129-1.16 2.153 1.109 3.954.52 3.954.52" fill="#D67A60"/>
            <path d="M243.014 279.319s.508-1.607-.222-2.455c-.16-.184-1.311.209-3.016.937-.126.053-.254.109-.386.166a129.598 129.598 0 0 0-4.256 1.963c-.486.232-.982.471-1.482.715l-.007.003c-6.203 3.017-13.274 6.716-13.274 6.716.29 1.435 1.591 1.97 1.591 1.97l5.277 16.422 25.178 20.063-1.032-31.776-8.37-14.724z" fill="#7D91FF"/>
            <path d="M222.274 288.88s-1.065-.344-1.32-1.14l10.03-5.195s-7.574 4.378-8.407 5.233c-.615.63-.303 1.102-.303 1.102" fill="#0090A8"/>
            <path d="M221.962 289.333s7.993-3.071 12.836-5.396c0 0-4.143 3.138-12.537 6.106l-.299-.71" fill="#043F4C"/>
        </g>
    </g>
</svg>
