<?xml version="1.0" standalone="yes"?>
<svg xmlns="http://www.w3.org/2000/svg" width="500" height="500">
<path style="fill:none; stroke:none;" d="M0 0L0 22L1 22C3.94474 11.8015 12.3342 2.90244 23 1L0 0z"/>
<path style="fill:#5f7fff; stroke:none;" d="M23 0.46759C12.168 2.51111 3.14305 11.2726 0.680556 22C-1.40634 31.0912 0 41.7075 0 51L0 108L0 383L0 454C0 465.632 -1.85318 477.95 5.22068 487.985C14.0306 500.483 27.3384 500 41 500L120 500L363 500L440 500C452.06 500 466.219 502.024 478 499.319C488.28 496.96 497.096 488.343 499.471 478C501.536 469.001 500 458.208 500 449L500 392L500 113L500 44C500 32.0721 501.493 19.917 493.319 10.0903C483.872 -1.26898 470.29 0 457 0L377 0L138 0L62 0C49.4896 0 35.3053 -1.85385 23 0.46759z"/>
<path style="fill:none; stroke:none;" d="M477 0L477 1C487.666 2.90244 496.055 11.8015 499 22L500 22L500 0L477 0z"/>
<path style="fill:#01ffff; stroke:none;" d="M0 22L1 23L0 22M499 22L500 23L499 22z"/>
<path style="fill:#748fff; stroke:none;" d="M163 108L164 109L163 108z"/>
<path style="fill:#fefeff; stroke:none;" d="M159 400C215.51 397.536 222 332.732 222 290C248.672 290 275.095 291.607 301 284.14C360.503 266.988 374.879 175.22 332.829 133.171C304.201 104.542 259.032 108 222 108L178 108C173.039 108 165.297 106.57 161.434 110.434C157.14 114.727 159 124.46 159 130L159 184L159 400z"/>
<path style="fill:#748fff; stroke:none;" d="M266 108L266 109L272 109L266 108M161 109L162 110L161 109M276 109L276 110L280 110L276 109M160 110L161 111L160 110M284 110L284 111L287 111L284 110M159.333 111.667L159.667 112.333L159.333 111.667M289.667 111.333L290.333 111.667L289.667 111.333M293.667 112.333L294.333 112.667L293.667 112.333M297.667 113.333L298.333 113.667L297.667 113.333M300.667 114.333L301.333 114.667L300.667 114.333M158 115L158 334L158 385C158 389.385 155.851 399.897 161 401L161 400L159 380L159 329L159 178L159 135L158 115M303 115L304 116L303 115M306 116L307 117L306 116M308.667 117.333L309.333 117.667L308.667 117.333M311 118L312 119L311 118M313 119L314 120L313 119M314 120L315 121L314 120M316 121L317 122L316 121M318 122L319 123L318 122M320 123L321 124L320 123M321 124L322 125L321 124M323 125L324 126L323 125M324 126L325 127L324 126M326 127L327 128L326 127M327 128L328 129L327 128M328 129L329 130L328 129M329 130L330 131L329 130M335 136L336 137L335 136M336 137L337 138L336 137M337 138L338 139L337 138M338 139L339 140L338 139M339 141L340 142L339 141M340 142L341 143L340 142M341 144L342 145L341 144M342 145L343 146L342 145M343 147L344 148L343 147M344 149L345 150L344 149M345 151L346 152L345 151M346 153L347 154L346 153M347 155L348 156L347 155M348 157L349 158L348 157M349 160L350 161L349 160M222 162L222 163L258 163C248.44 158.989 232.387 162 222 162M350.333 162.667L350.667 163.333L350.333 162.667z"/>
<path style="fill:#5f7fff; stroke:none;" d="M222 163L222 237C239.414 237 262.725 239.934 278 229.892C297.752 216.907 298.106 180.074 277 168.174C261.405 159.382 239.216 163 222 163z"/>
<path style="fill:#748fff; stroke:none;" d="M261 163L261 164L265 164L261 163M267.667 164.333L268.333 164.667L267.667 164.333M271 165L272 166L271 165M351.333 165.667L351.667 166.333L351.333 165.667M273.667 166.333L274.333 166.667L273.667 166.333M276 167L277 168L276 167M277 168L278 169L277 168M279 169L280 170L279 169M352.333 169.667L352.667 170.333L352.333 169.667M280 170L281 171L280 170M353.333 174.667L353.667 175.333L353.333 174.667M285 175L286 176L285 175M286 176L287 177L286 176M287 177L288 178L287 177M288 179L289 180L288 179M354 179L354 183L355 183L354 179M289 181L290 182L289 181M290 184L291 185L290 184M291.333 187.667L291.667 188.333L291.333 187.667M355 189L355 197L356 197L355 189M292 192L292 198L293 198L292 192M292 201L292 207L293 207L292 201M355 205L355 212L356 212L355 205M291.333 210.667L291.667 211.333L291.333 210.667M290.333 213.667L290.667 214.333L290.333 213.667M289 216L290 217L289 216M354 217L354 220L355 220L354 217M288 218L289 219L288 218M287 220L288 221L287 220M285 223L286 224L285 223M284 224L285 225L284 224M353.333 224.667L353.667 225.333L353.333 224.667M283 225L284 226L283 225M282 226L283 227L282 226M281 227L282 228L281 227M280 228L281 229L280 228M278 229L279 230L278 229M352 229L353 230L352 229M277 230L278 231L277 230M275 231L276 232L275 231M273 232L274 233L273 232M270.667 233.333L271.333 233.667L270.667 233.333M351 233L352 234L351 233M267 234L268 235L267 234M262 235L262 236L265 236L262 235M250 236L250 237L258 237L250 236M350 236L351 237L350 236M349 239L350 240L349 239M348 241L349 242L348 241M347 244L348 245L347 244M346 246L347 247L346 246M345 248L346 249L345 248M344 250L345 251L344 250M343 252L344 253L343 252M342 253L343 254L342 253M341 255L342 256L341 255M340 256L341 257L340 256M339 258L340 259L339 258M338 259L339 260L338 259M337 260L338 261L337 260M329 268L330 269L329 268M328 269L329 270L328 269M327 270L328 271L327 270M326 271L327 272L326 271M324 272L325 273L324 272M323 273L324 274L323 273M321 274L322 275L321 274M320 275L321 276L320 275M318 276L319 277L318 276M316 277L317 278L316 277M314 278L315 279L314 278M312 279L313 280L312 279M310 280L311 281L310 280M308 281L309 282L308 281M306 282L307 283L306 282M303 283L304 284L303 283M299.667 284.333L300.333 284.667L299.667 284.333M296.667 285.333L297.333 285.667L296.667 285.333M292.667 286.333L293.333 286.667L292.667 286.333M287 287L287 288L290 288L287 287M281 288L281 289L284 289L281 288M274 289L274 290L278 290L274 289M222 290L222 291L269 291C256.823 285.891 235.265 290 222 290M221 314L221 325L222 325L221 314M220 330L220 333L221 333L220 330M219 336L219 339L220 339L219 336M218.333 341.667L218.667 342.333L218.333 341.667M217.333 345.667L217.667 346.333L217.333 345.667M216 349L217 350L216 349M215 352L216 353L215 352M214 355L215 356L214 355M213 357L214 358L213 357M212 360L213 361L212 360M211 362L212 363L211 362M210 364L211 365L210 364M209 366L210 367L209 366M208 367L209 368L208 367M207 369L208 370L207 369M205 372L206 373L205 372M203 375L204 376L203 375M202 376L203 377L202 376M201 377L202 378L201 377M199 380L200 381L199 380M198 381L199 382L198 381M192 386L193 387L192 386M191 387L192 388L191 387M188 389L189 390L188 389M185 391L186 392L185 391M183 392L184 393L183 392M181 393L182 394L181 393M179 394L180 395L179 394M177.667 395.333L178.333 395.667L177.667 395.333M174.667 396.333L175.333 396.667L174.667 396.333M172 397L173 398L172 397M168.667 398.333L169.333 398.667L168.667 398.333M164.667 399.333L165.333 399.667L164.667 399.333z"/>
<path style="fill:none; stroke:none;" d="M0 478L0 500L23 500L23 499C10.6433 496.796 6.28087 487.335 0 478M499 478C496.035 488.273 487.761 497.081 477 499L477 500L500 500L499 478z"/>
<path style="fill:#748fff; stroke:none;" d="M6 489L7 490L6 489M493 489L494 490L493 489z"/>
</svg>
